<svg xmlns="http://www.w3.org/2000/svg" width="812" height="535"><defs><linearGradient x1="57.5066379%" y1="95.6371949%" x2="-49.2036193%" y2="-66.9888037%" id="A"><stop stop-color="#3DB9FF" offset="0%"/><stop stop-color="#5EDBD5" offset="100%"/></linearGradient><linearGradient x1="50%" y1="0%" x2="50%" y2="100%" id="B"><stop stop-color="#fff" offset="0%"/><stop stop-color="#B9EBFF" offset="100%"/></linearGradient><linearGradient x1="82.5182459%" y1="72.1487326%" x2="12.4283396%" y2="18.3591072%" id="C"><stop stop-color="#3C99FB" offset="0%"/><stop stop-color="#4265ED" offset="100%"/></linearGradient><linearGradient x1="50%" y1="0%" x2="50%" y2="100%" id="D"><stop stop-color="#FECAC8" offset="0%"/><stop stop-color="#FC9A97" offset="100%"/></linearGradient><linearGradient x1="128.456083%" y1="81.3801893%" x2="12.4283396%" y2="18.3591072%" id="E"><stop stop-color="#277AFF" offset="0%"/><stop stop-color="#0848B0" offset="100%"/></linearGradient><linearGradient x1="50%" y1="0%" x2="50%" y2="128.596551%" id="F"><stop stop-color="#FED5FF" offset="0%"/><stop stop-color="#D199E9" offset="100%"/></linearGradient><linearGradient x1="50%" y1="0%" x2="50%" y2="100%" id="G"><stop stop-color="#FECAC8" offset="0%"/><stop stop-color="#FDA9A6" offset="69.166213%"/><stop stop-color="#FC9A97" offset="100%"/></linearGradient><linearGradient x1="82.5182459%" y1="72.1487326%" x2="61.440344%" y2="19.9257343%" id="H"><stop stop-color="#5AD7C1" offset="0%"/><stop stop-color="#65D8C5" offset="100%"/></linearGradient><linearGradient x1="50%" y1="0%" x2="50%" y2="128.596551%" id="I"><stop stop-color="#fff" offset="0%"/><stop stop-color="#B9EBFF" offset="100%"/></linearGradient><linearGradient x1="100%" y1="-13.9686643%" x2="51.6257225%" y2="96.2943715%" id="J"><stop stop-color="#87876C" offset="0%"/><stop stop-color="#9FA074" offset="100%"/></linearGradient><linearGradient x1="50%" y1="41.8036108%" x2="177.275209%" y2="130.186663%" id="K"><stop stop-color="#fff" offset="0%"/><stop stop-color="#B9EBFF" offset="100%"/></linearGradient><linearGradient x1="7.19648706%" y1="79.1363115%" x2="104.394953%" y2="-14.177717%" id="L"><stop stop-color="#BAEBFF" stop-opacity="0" offset="0%"/><stop stop-color="#B9EBFF" offset="100%"/></linearGradient><linearGradient x1="82.5182459%" y1="72.1487326%" x2="61.2351443%" y2="19.4173278%" id="M"><stop stop-color="#3C99FB" offset="0%"/><stop stop-color="#4265ED" offset="100%"/></linearGradient><linearGradient x1="100%" y1="-13.9686643%" x2="50%" y2="100%" id="N"><stop stop-color="#7E7E7E" offset="0%"/><stop stop-color="#272727" offset="100%"/></linearGradient></defs><g fill="none" fill-rule="evenodd"><g stroke-width=".5" stroke="#00E4FF"><path d="M149.5 398l160.674-89"/><path d="M407.174 365.367L310 309"/></g><g fill="#00E4FF"><path d="M338.467 337.02c-.405.026-.77-.141-.815-.373l-.648-3.335c-.03-.154.165-.293.435-.311a.86.86 0 0 1 .109 0l5.836.371c.405.026.697.234.652.466s-.41.398-.815.373l-4.461-.283c-.068-.004-.128.024-.136.062-.001.005-.001.01 0 .016l.496 2.549c.045.232-.247.44-.652.466zm3.48 1.989c-.405.026-.77-.141-.815-.373l-.648-3.335c-.03-.154.165-.293.435-.311a.86.86 0 0 1 .109 0l5.836.371c.405.026.697.234.652.466s-.41.398-.815.373l-4.461-.283c-.068-.004-.128.024-.136.062-.001.005-.001.01 0 .016l.496 2.549c.045.232-.247.44-.652.466zm3.48 1.989c-.405.026-.77-.141-.815-.373l-.648-3.335c-.03-.154.165-.293.435-.311a.86.86 0 0 1 .109 0l5.836.371c.405.026.697.234.652.466s-.41.398-.815.373l-4.461-.283c-.068-.004-.128.024-.136.062-.001.005-.001.01 0 .016l.496 2.549c.045.232-.247.44-.652.466z" fill-rule="nonzero"/><path d="M309.843 308c1.018 0 1.843.475 1.843 1.061s-.825 1.061-1.843 1.061-1.843-.475-1.843-1.061.825-1.061 1.843-1.061z"/></g><g transform="matrix(-1 0 0 1 237 389)"><path d="M236.096 91.088v7.502c.041.967-.144 1.977-.668 2.885a4.67 4.67 0 0 1-1.708 1.708l-70.361 40.955a11.67 11.67 0 0 1-11.669 0L3.005 58.17A4.67 4.67 0 0 1 .693 53.66L.67 46.157h14.335l206.571 44.93h14.521z" fill="url(#A)"/><path d="M85.035 1.935L233.72 87.903a4.67 4.67 0 0 1 0 8.085l-70.361 40.955a11.67 11.67 0 0 1-11.669 0L3.005 50.975a4.67 4.67 0 0 1 0-8.085L73.366 1.935a11.67 11.67 0 0 1 11.669 0z" fill="url(#B)"/><path d="M87.08 15.809l125.393 72.395c1.733 1.001 2.327 3.217 1.327 4.951-.318.551-.776 1.008-1.327 1.327l-10.741 6.201a9.06 9.06 0 0 1-9.061 0L67.278 28.287c-1.733-1.001-2.327-3.217-1.327-4.951.318-.551.776-1.008 1.327-1.327l10.741-6.201a9.06 9.06 0 0 1 9.061 0z" fill="#B1E9FF"/></g><g transform="matrix(-1 0 0 1 161 312)"><path d="M9.632 1.14l125.364 72.201A4 4 0 0 1 137 76.807v85.153a2 2 0 0 1-1.018 1.742l-4.817 2.716L7.398 89.681a4 4 0 0 1-1.888-3.218L1.796 4.538l5.832-3.393a2 2 0 0 1 2.004-.004z" fill="url(#A)"/><path d="M3.604 4.548l126.393 72.794A4 4 0 0 1 132 80.807v84.102a2 2 0 0 1-2.999 1.732L2.607 93.724a4 4 0 0 1-2.001-3.465V6.281a2 2 0 0 1 2.998-1.733z" fill="url(#B)"/><path d="M.605 22.821L132 98.495v19.877L.605 42.569z" fill="url(#C)" fill-rule="nonzero"/><g fill="url(#A)"><path d="M103.708 128.458l20.215 11.654v5l-20.215-11.654v-5zm-23-13.266l20.215 11.654v5l-20.215-11.654v-5zm-23-13.221l20.215 11.654v5l-20.215-11.654v-5z"/><path d="M18 74l20.215 11.654v20L18 94z"/></g></g><path d="M106.208 450.861l-1.895 29.383-2.824.314 4.719 2.163v-1.813l5.296-22.854 3.177 20.01-2.78.166 4.233 2.678 1.007-.664-.565-31.47z" fill="url(#D)"/><path d="M104.788 472.031l3.451.452 3.264-13.382 2.273 13.382 3.295-.854-.35-23.699-11.072 3.031z" fill="url(#E)"/><path d="M118.743 435.477l.676 5.388-2.912 4.984v-2.547l.89-3.082-.89-4.743z" fill="url(#D)"/><path d="M105.459 451.022c4.808 2.169 8.706 1.32 11.693-2.548l-.907-12.623 3.196-.257c-.681-6.298-2.67-9.318-5.966-9.061s-5.968 3.278-8.016 9.061l1.077 2.607-1.077 12.82z" fill="url(#F)"/><path d="M106.144 436.587l3.1 1.087-2.223 3.667a1 1 0 0 1-1.374.336l-.017-.01-8.752-5.546-1.406-1.435v-1.977l1.03 1.018.638.106c.856.143 1.483.883 1.483 1.75l6.536 2.841.984-1.837z" fill="url(#G)"/><g fill="#0D50BD"><path d="M104.342 480.143l-3.448.204 4.464 2.902 1.153-.335v-2.771h-2.169zm10.692-2.235l-3.448.204 4.464 2.902 1.153-.335v-2.771h-2.169z"/><path d="M115.034 477.908l-3.448.204 4.464 2.902 1.153-.335v-2.771z"/></g><path d="M107.909 418.311c-.56 3.162-.422 5.217.413 6.166s1.763 1.423 2.785 1.423v2.428l2.165-1.141v-3.325c1.497-1.249 2.088-2.651 1.771-4.208-.429-2.112-2.489-3.475-4.601-3.046a3.9 3.9 0 0 0-2.227 1.335l-.305.369z" fill="url(#D)"/><path d="M107.504 420.295c.67 1.538 1.853 2.644 3.547 3.318 2.542 1.01-2.773 4.452-1.774 7.658s5.251 1.792 4.67 5.724c2.531-2.135 3.643-4.725 3.337-7.769-.459-4.566-2.384-4.086-1.619-8.447s-5.095-6.69-7.799-2.943l-.311.743c-.228.546-.247 1.158-.052 1.717z" fill="#313131"/><g transform="matrix(-1 0 0 1 605 275)"><path d="M163.078 48.882v7.502c.041.967-.144 1.977-.668 2.885a4.67 4.67 0 0 1-1.708 1.708l-70.361 40.955a11.67 11.67 0 0 1-11.669 0L3.005 58.17A4.67 4.67 0 0 1 .693 53.66L.67 46.157h14.335l133.553 2.724h14.521z" fill="url(#A)"/><path d="M85.035 1.935l75.667 43.762a4.67 4.67 0 0 1 0 8.085L90.341 94.737a11.67 11.67 0 0 1-11.669 0L3.005 50.975a4.67 4.67 0 0 1 0-8.085L73.366 1.935a11.67 11.67 0 0 1 11.669 0z" fill="url(#B)"/></g><g transform="matrix(-1 0 0 1 554 190)"><path d="M13.771 110.217l1.895 29.383 2.824.313-4.719 2.163v-1.813L8.474 117.41 5.32 137.227h2.544l-4.018 3.038-1.007-.664.565-31.471z" fill="url(#H)"/><path d="M1.236 94.833h2.235l-.89 4.743.89 3.083v2.547L.56 100.221z" fill="url(#D)"/><path d="M14.52 110.378c-4.808 2.169-8.706 1.32-11.693-2.548l.907-12.623-3.196-.257c.681-6.298 2.67-9.318 5.966-9.061s5.968 3.278 8.016 9.061l-1.077 2.607 1.077 12.82z" fill="url(#I)"/><path d="M13.835 95.943l.984 1.837 6.536-2.841c0-.867.627-1.608 1.483-1.75l.638-.106 1.03-1.018v1.977L23.1 95.478l-8.769 5.556a1 1 0 0 1-1.374-.337l-2.223-3.667 3.1-1.087z" fill="url(#G)"/><path d="M12.07 77.667c.56 3.162.422 5.217-.413 6.166s-1.763 1.423-2.785 1.423v2.428l-2.165-1.141v-3.325c-1.497-1.249-2.088-2.651-1.771-4.208.429-2.111 2.489-3.475 4.601-3.046.873.178 1.659.649 2.227 1.335l.305.369z" fill="url(#D)"/><path d="M11.41 77.009c-.389 1.2-1.32 1.938-2.795 2.213l-.029 1.63c-.388-.892-.99-1.281-1.806-1.167-1.224.17.371 2.658.905 3.022.357.243.055.883-.905 1.92-1.967-1.072-3.105-2.341-3.413-3.809-.462-2.201-1.311-4.667.488-5.152s3.445-3.466 7.309-1.976c2.576.993 2.658 2.1.246 3.32z" fill="url(#J)"/><g fill="url(#K)"><path d="M70 120.232L111 97v5l-41 23.232v-5zm18 1.8L111 109v5l-23 13.033v-5z"/><path d="M136.5 101.03c6.351-3.573 11.5-11.507 11.5-17.72s-5.149-8.354-11.5-4.78S125 90.037 125 96.25s5.149 8.353 11.5 4.78z"/></g><g fill="url(#A)"><path d="M153.245 61.881L58.99 117.064a2 2 0 0 0-.99 1.726v33.952a1 1 0 0 0 1.506.863l94.256-55.26a2 2 0 0 0 .988-1.726V62.744a1 1 0 0 0-1.505-.863z" opacity=".2"/><path d="M140.125 86.701c.605-.793 1.471-1.168 1.935-.836s.348 1.244-.258 2.037l-3.405 4.463c-.574.753-1.39 1.135-1.87.876l-5.199-2.805c-.506-.273-.454-1.155.116-1.971s1.442-1.255 1.948-.982l4.348 2.346 2.386-3.127z"/><path d="M128.083 1.042L8.383 71.028a4.8 4.8 0 0 0-2.377 4.144v119.582a2.4 2.4 0 0 0 1.178 2.066l5.737 3.394 118.993-76.101a4.8 4.8 0 0 0 2.21-3.84l4.9-115.641-6.079-3.583a4.8 4.8 0 0 0-4.86-.008z"/></g><g fill="url(#K)"><path d="M88 61.232L129 38v5L88 66.232v-5zm18 1.8L129 50v5l-23 13.033v-5z"/><path d="M154.5 42.03c6.351-3.573 11.5-11.507 11.5-17.72s-5.149-8.354-11.5-4.78S143 31.037 143 37.25s5.149 8.353 11.5 4.78z"/></g><g fill="url(#A)"><path d="M171.245 2.881L76.99 58.064A2 2 0 0 0 76 59.79v33.952a1 1 0 0 0 1.506.863l94.256-55.26a2 2 0 0 0 .988-1.726V3.744a1 1 0 0 0-1.505-.863z" opacity=".2"/><path d="M158.125 27.701c.605-.793 1.471-1.168 1.935-.836s.348 1.244-.258 2.037l-3.405 4.463c-.574.753-1.39 1.135-1.87.876l-5.199-2.805c-.506-.273-.454-1.155.116-1.971s1.442-1.255 1.948-.982l4.348 2.346 2.386-3.127z"/></g><path d="M136.391 4.682L14.371 75.839a4.8 4.8 0 0 0-2.382 4.146v118.226a2.4 2.4 0 0 0 3.611 2.072l122.022-71.316a4.8 4.8 0 0 0 2.378-4.144V6.755a2.4 2.4 0 0 0-3.609-2.073z" fill="#DFF3FF"/></g><g stroke-width=".5" stroke="#00E4FF"><path d="M573.5 338l197-117.5"/><path d="M770.5 221.5L730 195"/></g><path d="M522.078 374.881v7.502c.041.967-.144 1.978-.668 2.885-.41.71-.999 1.299-1.708 1.708l-70.361 40.955a11.67 11.67 0 0 1-11.669 0l-75.667-43.762a4.67 4.67 0 0 1-2.311-4.511l-.023-7.502h14.335l133.553 2.724h14.521z" fill="url(#A)"/><path d="M444.035 327.935l75.667 43.762a4.67 4.67 0 0 1 0 8.084l-70.361 40.955a11.67 11.67 0 0 1-11.669 0l-75.667-43.762a4.67 4.67 0 0 1 0-8.085l70.361-40.955c3.611-2.085 8.059-2.085 11.669 0z" fill="url(#B)"/><g transform="matrix(-1 0 0 1 812 .825064)"><path d="M153.279 155.214v7.502c.041.966-.144 1.978-.668 2.885a4.67 4.67 0 0 1-1.708 1.708l-70.361 40.955a11.67 11.67 0 0 1-11.669 0L3.218 170.449a4.67 4.67 0 0 1-2.311-4.51l-.023-7.502h14.335l123.541-3.223h14.521z" fill="url(#A)"/><path d="M85.248 114.214l65.655 37.815a4.67 4.67 0 0 1 0 8.084l-70.361 40.955a11.67 11.67 0 0 1-11.669 0L3.218 163.254a4.67 4.67 0 0 1-1.708-6.376c.41-.71.999-1.299 1.708-1.708l70.361-40.955a11.67 11.67 0 0 1 11.669 0z" fill="url(#B)"/><path d="M73.274 155.481l-21.485 9.663c-9.635 6.326-11.12 10.457-4.455 12.395 9.997 2.906 21.006-5.167 21.006-5.167l19.976-16.89c-14.274 7.271-21.323 10.492-21.146 9.663s3.692-4.669 10.546-11.521l-4.442 1.858z" fill="url(#L)"/><g transform="matrix(-1 0 0 1 102 86)"><path d="M11.208 35.861L9.313 65.244l-2.824.314 4.719 2.163v-1.813l5.296-22.854 3.177 20.01-2.78.166 4.233 2.679 1.007-.664-.565-31.47z" fill="url(#D)"/><path d="M9.788 57.031l3.451.452 3.264-13.382 2.273 13.382 3.295-.854-.35-23.699-11.072 3.031z" fill="url(#E)"/><path d="M23.743 20.477l.676 5.388-2.912 4.985v-2.547l.89-3.082-.89-4.743z" fill="url(#D)"/><path d="M10.459 36.022c4.808 2.169 8.706 1.32 11.693-2.548l-.907-12.623 3.196-.257c-.681-6.298-2.67-9.318-5.966-9.06s-5.968 3.278-8.016 9.06l1.077 2.607-1.077 12.82z" fill="url(#F)"/><path d="M11.144 21.587l3.1 1.088-2.223 3.666a1 1 0 0 1-1.374.337l-.017-.01-8.752-5.546-1.406-1.435v-1.977l1.03 1.018.638.106c.856.142 1.483.883 1.483 1.75l6.536 2.841.984-1.837z" fill="url(#G)"/><g fill="#0D50BD"><path d="M9.342 65.143l-3.448.204 4.464 2.902 1.153-.335v-2.771H9.342zm10.692-2.235l-3.448.204 4.464 2.902 1.153-.335v-2.771h-2.169z"/><path d="M20.034 62.908l-3.448.204 4.464 2.902 1.153-.335v-2.771z"/></g><path d="M12.909 3.31c-.56 3.162-.422 5.217.413 6.166s1.763 1.423 2.785 1.423v2.428l2.165-1.141V8.861c1.497-1.248 2.088-2.651 1.771-4.208-.429-2.112-2.489-3.475-4.601-3.046a3.9 3.9 0 0 0-2.227 1.335l-.305.369z" fill="url(#D)"/><path d="M12.504 5.295c.67 1.538 1.853 2.644 3.547 3.318 2.542 1.011-2.773 4.452-1.774 7.658s5.251 1.791 4.67 5.723c2.531-2.135 3.643-4.725 3.337-7.769-.459-4.566-2.384-4.087-1.619-8.447s-5.095-6.69-7.799-2.943l-.311.743c-.228.546-.247 1.158-.052 1.717z" fill="#313131"/></g><path d="M85.694 2.706L89.983.323a1.8 1.8 0 0 1 1.764.009l69.433 39.482a3.24 3.24 0 0 1 1.638 2.817v49.993a1.8 1.8 0 0 1-.996 1.61l-4.615 2.305-38.648-25.696-13.874 4.729a1.08 1.08 0 0 1-1.428-1.022V62.127l-13.69-7.797a3.24 3.24 0 0 1-1.633-2.667l-2.24-48.958z" fill="url(#A)"/><path d="M87.422 2.574l68.926 39.254a3.24 3.24 0 0 1 1.637 2.815v50.569a1.62 1.62 0 0 1-2.422 1.408L115.544 73.83l-13.874 4.729a1.08 1.08 0 0 1-1.428-1.022V65.115l-13.605-7.749A3.24 3.24 0 0 1 85 54.551V3.982a1.62 1.62 0 0 1 2.422-1.408z" fill="url(#B)"/><g fill="url(#A)"><path d="M152.281 51.854v4.802l-34.836-19.927v-4.802z" opacity=".3"/><path d="M137 57.884l-19.556-11.191V41.89L137 53.082z" opacity=".3"/><path d="M99.5 36.672c-2.485-1.407-4.5-4.562-4.5-7.047s2.015-3.36 4.5-1.953 4.5 4.562 4.5 7.047-2.015 3.36-4.5 1.953zm0 1c4.142 2.344 7.5 7.603 7.5 11.745v2c0 .276-.224.373-.5.217l-14-7.924c-.276-.156-.5-.507-.5-.783v-2c0-4.142 3.358-5.599 7.5-3.255z"/><path d="M152.281 71.78v4.802l-34.836-19.927v-4.802z" opacity=".3"/><path d="M130.694 54.706l4.289-2.383a1.8 1.8 0 0 1 1.764.009l69.433 39.482a3.24 3.24 0 0 1 1.638 2.816v49.993a1.8 1.8 0 0 1-.996 1.61l-4.615 2.305-38.648-25.696-13.874 4.729a1.08 1.08 0 0 1-1.428-1.022v-12.422l-13.69-7.796a3.24 3.24 0 0 1-1.633-2.667l-2.24-48.958z"/></g><path d="M132.422 54.574l68.926 39.254a3.24 3.24 0 0 1 1.637 2.815v50.569a1.62 1.62 0 0 1-2.422 1.408l-40.018-22.791-13.874 4.729a1.08 1.08 0 0 1-1.428-1.022v-12.422l-13.605-7.748a3.24 3.24 0 0 1-1.637-2.815V55.982a1.62 1.62 0 0 1 2.422-1.408z" fill="url(#B)"/><g fill="url(#A)"><path d="M197.281 103.854v4.802l-34.836-19.927v-4.802z" opacity=".3"/><path d="M182 109.884l-19.556-11.191V93.89L182 105.082z" opacity=".3"/><path d="M144.5 88.672c-2.485-1.406-4.5-4.562-4.5-7.047s2.015-3.359 4.5-1.953 4.5 4.562 4.5 7.047-2.015 3.359-4.5 1.953zm0 1c4.142 2.345 7.5 7.603 7.5 11.745v2c0 .276-.224.374-.5.217l-14-7.924c-.276-.156-.5-.507-.5-.783v-2c0-4.142 3.358-5.599 7.5-3.255z"/><path d="M197.281 123.78v4.802l-34.836-19.927v-4.802z" opacity=".3"/></g></g><g transform="matrix(-1 0 0 1 543 193)"><path d="M122.083 1.041L2.383 71.029a4.8 4.8 0 0 0-2.377 4.144v119.582a2.4 2.4 0 0 0 1.178 2.066l5.737 3.394 118.993-76.101a4.8 4.8 0 0 0 2.21-3.841l4.9-115.641-6.079-3.582a4.8 4.8 0 0 0-4.86-.008z" fill="url(#A)"/><path d="M130.391 4.682L8.371 75.839a4.8 4.8 0 0 0-2.382 4.146v118.226a2.4 2.4 0 0 0 3.611 2.072l122.022-71.316a4.8 4.8 0 0 0 2.378-4.144V6.755a2.4 2.4 0 0 0-3.609-2.073z" fill="#DFF3FF"/><path d="M127.299 14.781L13.164 81.686v105.827l114.135-67.07z" fill="url(#K)"/><path d="M165.245 2.881L70.99 58.064A2 2 0 0 0 70 59.79v33.952a1 1 0 0 0 1.506.863l94.256-55.26a2 2 0 0 0 .988-1.726V3.744a1 1 0 0 0-1.505-.863z" fill="url(#A)" opacity=".2"/><g fill="url(#K)"><path d="M82 61.232L123 38v5L82 66.232v-5zm18 1.8L123 50v5l-23 13.033v-5z"/><path d="M148.5 42.03c6.351-3.573 11.5-11.507 11.5-17.72s-5.149-8.354-11.5-4.78S137 31.037 137 37.25s5.149 8.353 11.5 4.78z"/></g><g fill="url(#A)"><path d="M152.125 27.701c.605-.793 1.471-1.168 1.935-.836s.348 1.244-.258 2.037l-3.405 4.463c-.574.753-1.39 1.135-1.87.876l-5.199-2.805c-.506-.273-.454-1.155.116-1.971s1.442-1.255 1.948-.982l4.348 2.346 2.386-3.127z"/><path d="M147.245 61.881L52.99 117.064a2 2 0 0 0-.99 1.726v33.952a1 1 0 0 0 1.506.863l94.256-55.26a2 2 0 0 0 .988-1.726V62.744a1 1 0 0 0-1.505-.863z" opacity=".2"/></g><g fill="url(#K)"><path d="M64 120.232L105 97v5l-41 23.232v-5zm18 1.8L105 109v5l-23 13.033v-5z"/><path d="M130.5 101.03c6.351-3.573 11.5-11.507 11.5-17.72s-5.149-8.354-11.5-4.78S119 90.037 119 96.25s5.149 8.353 11.5 4.78z"/></g><path d="M134.125 86.701c.605-.793 1.471-1.168 1.935-.836s.348 1.244-.258 2.037l-3.405 4.463c-.574.753-1.39 1.135-1.87.876l-5.199-2.805c-.506-.273-.454-1.155.116-1.971s1.442-1.255 1.948-.982l4.348 2.346 2.386-3.127z" fill="url(#A)"/><g transform="matrix(-1 0 0 1 104 121)"><path d="M13.771 37.217L15.665 66.6l2.824.314-4.719 2.163v-1.813L8.474 44.41 5.32 64.226h2.544l-4.018 3.038-1.007-.664.565-31.47z" fill="url(#M)"/><path d="M1.236 21.833h2.235l-.89 4.743.89 3.082v2.547L.56 27.221z" fill="url(#D)"/><path d="M14.52 37.378c-4.808 2.169-8.706 1.32-11.693-2.548l.907-12.623-3.196-.257c.681-6.298 2.67-9.318 5.966-9.06s5.968 3.278 8.016 9.06l-1.077 2.607 1.077 12.82z" fill="url(#I)"/><path d="M13.835 22.943l.984 1.837 6.536-2.841c0-.867.627-1.608 1.483-1.75l.638-.106 1.03-1.018v1.977L23.1 22.477l-8.769 5.556a1 1 0 0 1-1.374-.337l-2.223-3.666 3.1-1.088z" fill="url(#G)"/><path d="M12.07 4.666c.56 3.162.422 5.217-.413 6.166s-1.763 1.423-2.785 1.423v2.428l-2.165-1.141v-3.325C5.21 8.969 4.619 7.566 4.936 6.009c.429-2.112 2.489-3.475 4.601-3.046a3.9 3.9 0 0 1 2.227 1.335l.305.369z" fill="url(#D)"/><path d="M11.41 4.009c-.389 1.2-1.321 1.937-2.795 2.213l-.029 1.631c-.388-.892-.99-1.281-1.806-1.168-1.224.17.371 2.658.905 3.022.356.243.055.883-.905 1.919-1.967-1.071-3.105-2.341-3.413-3.809-.462-2.201-1.311-4.667.488-5.153S7.299-.801 11.163.689c2.576.993 2.658 2.1.246 3.32z" fill="url(#N)"/></g></g></g></svg>