<svg xmlns="http://www.w3.org/2000/svg" xmlns:xlink="http://www.w3.org/1999/xlink" width="667" height="413"><defs><linearGradient x1="100%" y1="19.715032%" x2="-11.4548153%" y2="12.5193757%" id="A"><stop stop-color="#3780FF" offset="0%"/><stop stop-color="#2684FF" offset="100%"/></linearGradient><linearGradient x1="111.848968%" y1="-16.7940263%" x2="-212.864322%" y2="138.275637%" id="B"><stop stop-color="#1862D9" offset="0%"/><stop stop-color="#4590FF" offset="100%"/></linearGradient><linearGradient x1="128.456083%" y1="81.3801893%" x2="12.4283396%" y2="18.3591072%" id="C"><stop stop-color="#277AFF" offset="0%"/><stop stop-color="#0848B0" offset="100%"/></linearGradient><linearGradient x1="57.5066379%" y1="95.6371949%" x2="-49.2036193%" y2="-66.9888037%" id="D"><stop stop-color="#3DB9FF" offset="0%"/><stop stop-color="#5EDBD5" offset="100%"/></linearGradient><linearGradient x1="50%" y1="0%" x2="50%" y2="100%" id="E"><stop stop-color="#fff" offset="0%"/><stop stop-color="#B9EBFF" offset="100%"/></linearGradient><linearGradient x1="7.19648706%" y1="79.1363115%" x2="104.394953%" y2="-14.177717%" id="F"><stop stop-color="#BAEBFF" stop-opacity="0" offset="0%"/><stop stop-color="#B9EBFF" offset="100%"/></linearGradient><linearGradient x1="82.5182459%" y1="72.1487326%" x2="12.4283396%" y2="18.3591072%" id="G"><stop stop-color="#3C99FB" offset="0%"/><stop stop-color="#4265ED" offset="100%"/></linearGradient><linearGradient x1="50%" y1="0%" x2="50%" y2="128.596551%" id="H"><stop stop-color="#fff" offset="0%"/><stop stop-color="#B9EBFF" offset="100%"/></linearGradient><path id="I" d="M8.418 110.934l108.638 62.722V84.803L8.418 22.081z"/><filter x="-14.3%" y="-15.5%" width="137.7%" height="127.0%" filterUnits="objectBoundingBox" id="J"><feOffset dx="5" dy="-3" in="SourceAlpha" result="A"/><feGaussianBlur stdDeviation="6" in="A" result="B"/><feColorMatrix values="0 0 0 0 0.031372549 0 0 0 0 0.282352941 0 0 0 0 0.690196078 0 0 0 0.650786911 0" type="matrix" in="B"/><filter/></filter><linearGradient x1="128.096%" y1="-83.1711126%" x2="50%" y2="78.9646093%" id="K"><stop stop-color="#fff" offset="0%"/><stop stop-color="#87DDFF" offset="100%"/></linearGradient><linearGradient x1="82.5182459%" y1="72.1487326%" x2="12.4283396%" y2="18.3591072%" id="L"><stop stop-color="#3CB8FB" offset="0%"/><stop stop-color="#4265ED" offset="100%"/></linearGradient><path d="M107.759 63.409v84.51a1.56 1.56 0 0 1-2.341 1.351L7.363 92.658a3.12 3.12 0 0 1-1.56-2.703V5.445a1.56 1.56 0 0 1 2.341-1.351l98.055 56.612a3.12 3.12 0 0 1 1.56 2.703z" id="M"/><filter x="-28.4%" y="-22.7%" width="160.8%" height="142.6%" filterUnits="objectBoundingBox" id="N"><feOffset dx="2" dy="-2" in="SourceAlpha" result="A"/><feGaussianBlur stdDeviation="10" in="A" result="B"/><feColorMatrix values="0 0 0 0 0.729411765 0 0 0 0 0.921568627 0 0 0 0 1 0 0 0 0.502038043 0" type="matrix" in="B"/><filter/></filter><linearGradient x1="50%" y1="0%" x2="50%" y2="100%" id="O"><stop stop-color="#FECAC8" offset="0%"/><stop stop-color="#FC9A97" offset="100%"/></linearGradient><linearGradient x1="50%" y1="0%" x2="50%" y2="128.596551%" id="P"><stop stop-color="#FED5FF" offset="0%"/><stop stop-color="#D199E9" offset="100%"/></linearGradient><linearGradient x1="50%" y1="0%" x2="50%" y2="100%" id="Q"><stop stop-color="#FECAC8" offset="0%"/><stop stop-color="#FDA9A6" offset="69.166213%"/><stop stop-color="#FC9A97" offset="100%"/></linearGradient><linearGradient x1="82.5182459%" y1="72.1487326%" x2="61.2351443%" y2="19.4173278%" id="R"><stop stop-color="#3C99FB" offset="0%"/><stop stop-color="#4265ED" offset="100%"/></linearGradient><linearGradient x1="100%" y1="-13.9686643%" x2="50%" y2="100%" id="S"><stop stop-color="#7E7E7E" offset="0%"/><stop stop-color="#272727" offset="100%"/></linearGradient><linearGradient x1="94.2703307%" y1="18.8954316%" x2="18.2581599%" y2="106.238557%" id="T"><stop stop-color="#1E6CE9" offset="0%"/><stop stop-color="#3C99FB" offset="100%"/></linearGradient><linearGradient x1="0%" y1="100%" x2="145.509411%" y2="-28.1399882%" id="U"><stop stop-color="#277AFF" offset="0%"/><stop stop-color="#0848B0" offset="100%"/></linearGradient><linearGradient x1="50%" y1="0%" x2="50%" y2="100%" id="V"><stop stop-color="#EFD595" offset="0%"/><stop stop-color="#DBAC5C" offset="100%"/></linearGradient><linearGradient x1="50%" y1="0%" x2="100%" y2="149.243136%" id="W"><stop stop-color="#DAAF2D" offset="0%"/><stop stop-color="#B27714" offset="100%"/></linearGradient><linearGradient x1="85.3027851%" y1="117.100975%" x2="12.4283396%" y2="18.3591072%" id="X"><stop stop-color="#FF8FC6" offset="0%"/><stop stop-color="#FFCCE4" offset="100%"/></linearGradient><linearGradient x1="6.21006351%" y1="15.0400813%" x2="100%" y2="106.844278%" id="Y"><stop stop-color="#FF5892" offset="0%"/><stop stop-color="#B10798" offset="100%"/></linearGradient><path d="M46.733 27.499V64.15c0 .374-.303.677-.677.677-.119 0-.235-.031-.338-.091L3.193 40.184c-.419-.242-.677-.689-.677-1.172V2.361c0-.374.303-.677.677-.677.119 0 .235.031.338.091l42.525 24.552c.419.242.677.689.677 1.172z" id="Z"/><filter x="-65.6%" y="-52.3%" width="240.2%" height="198.2%" filterUnits="objectBoundingBox" id="a"><feOffset dx="2" dy="-2" in="SourceAlpha" result="A"/><feGaussianBlur stdDeviation="10" in="A" result="B"/><feColorMatrix values="0 0 0 0 0.729411765 0 0 0 0 0.921568627 0 0 0 0 1 0 0 0 0.502038043 0" type="matrix" in="B"/><filter/></filter><linearGradient x1="12.4283396%" y1="18.3591072%" x2="100%" y2="106.844278%" id="b"><stop stop-color="#FB6AB1" offset="0%"/><stop stop-color="#FFC5E1" offset="100%"/></linearGradient><path d="M46.733 27.499V64.15c0 .374-.303.677-.677.677-.119 0-.235-.031-.338-.091L3.193 40.184c-.419-.242-.677-.689-.677-1.172V2.361c0-.374.303-.677.677-.677.119 0 .235.031.338.091l42.525 24.552c.419.242.677.689.677 1.172z" id="c"/><filter x="-65.6%" y="-52.3%" width="240.2%" height="198.2%" filterUnits="objectBoundingBox" id="d"><feOffset dx="2" dy="-2" in="SourceAlpha" result="A"/><feGaussianBlur stdDeviation="10" in="A" result="B"/><feColorMatrix values="0 0 0 0 0.729411765 0 0 0 0 0.921568627 0 0 0 0 1 0 0 0 0.502038043 0" type="matrix" in="B"/><filter/></filter><linearGradient x1="85.3027851%" y1="117.100975%" x2="12.4283396%" y2="18.3591072%" id="e"><stop stop-color="#F6FA00" offset="0%"/><stop stop-color="#FFFDB1" offset="100%"/></linearGradient><linearGradient x1="-5.7112952%" y1="7.77662733%" x2="100%" y2="146.195008%" id="f"><stop stop-color="#FFF66C" offset="0%"/><stop stop-color="#DADC31" offset="100%"/></linearGradient><path d="M46.733 27.499V64.15c0 .374-.303.677-.677.677-.119 0-.235-.031-.338-.091L3.193 40.184c-.419-.242-.677-.689-.677-1.172V2.361c0-.374.303-.677.677-.677.119 0 .235.031.338.091l42.525 24.552c.419.242.677.689.677 1.172z" id="g"/><filter x="-65.6%" y="-52.3%" width="240.2%" height="198.2%" filterUnits="objectBoundingBox" id="h"><feOffset dx="2" dy="-2" in="SourceAlpha" result="A"/><feGaussianBlur stdDeviation="10" in="A" result="B"/><feColorMatrix values="0 0 0 0 0.729411765 0 0 0 0 0.921568627 0 0 0 0 1 0 0 0 0.502038043 0" type="matrix" in="B"/><filter/></filter><path d="M46.733 27.499V64.15c0 .374-.303.677-.677.677-.119 0-.235-.031-.338-.091L3.193 40.184c-.419-.242-.677-.689-.677-1.172V2.361c0-.374.303-.677.677-.677.119 0 .235.031.338.091l42.525 24.552c.419.242.677.689.677 1.172z" id="i"/><filter x="-65.6%" y="-52.3%" width="240.2%" height="198.2%" filterUnits="objectBoundingBox" id="j"><feOffset dx="2" dy="-2" in="SourceAlpha" result="A"/><feGaussianBlur stdDeviation="10" in="A" result="B"/><feColorMatrix values="0 0 0 0 0.729411765 0 0 0 0 0.921568627 0 0 0 0 1 0 0 0 0.502038043 0" type="matrix" in="B"/><filter/></filter><linearGradient x1="85.3027851%" y1="117.100975%" x2="12.4283396%" y2="18.3591072%" id="k"><stop stop-color="#6DE1FF" offset="0%"/><stop stop-color="#8FFFE3" offset="100%"/></linearGradient><linearGradient x1="12.4283396%" y1="18.3591072%" x2="100%" y2="106.844278%" id="l"><stop stop-color="#00FFA1" offset="0%"/><stop stop-color="#00C4FB" offset="100%"/></linearGradient><path d="M46.733 27.499V64.15c0 .374-.303.677-.677.677-.119 0-.235-.031-.338-.091L3.193 40.184c-.419-.242-.677-.689-.677-1.172V2.361c0-.374.303-.677.677-.677.119 0 .235.031.338.091l42.525 24.552c.419.242.677.689.677 1.172z" id="m"/><filter x="-65.6%" y="-52.3%" width="240.2%" height="198.2%" filterUnits="objectBoundingBox" id="n"><feOffset dx="2" dy="-2" in="SourceAlpha" result="A"/><feGaussianBlur stdDeviation="10" in="A" result="B"/><feColorMatrix values="0 0 0 0 0.729411765 0 0 0 0 0.921568627 0 0 0 0 1 0 0 0 0.502038043 0" type="matrix" in="B"/><filter/></filter><path d="M46.733 27.499V64.15c0 .374-.303.677-.677.677-.119 0-.235-.031-.338-.091L3.193 40.184c-.419-.242-.677-.689-.677-1.172V2.361c0-.374.303-.677.677-.677.119 0 .235.031.338.091l42.525 24.552c.419.242.677.689.677 1.172z" id="o"/><filter x="-65.6%" y="-52.3%" width="240.2%" height="198.2%" filterUnits="objectBoundingBox" id="p"><feOffset dx="2" dy="-2" in="SourceAlpha" result="A"/><feGaussianBlur stdDeviation="10" in="A" result="B"/><feColorMatrix values="0 0 0 0 0.729411765 0 0 0 0 0.921568627 0 0 0 0 1 0 0 0 0.502038043 0" type="matrix" in="B"/><filter/></filter></defs><g transform="translate(0 18)" fill="none" fill-rule="evenodd"><g stroke-width=".5" stroke="#00E4FF"><path d="M482.362 300.562l-127.948 73.587-194.257-113.197m47.478 28.203l-65.827 38.135 111.332 64.101v-14.114"/><path d="M213.291 74.178v28.041l-24.902 14.427 111.332 64.1m-121.76 166.876L98.678 393.27v-12.598"/><path d="M93.861 154.04v13.079l54.9 31.878 42.499-24.572 59.367 34.357m49.378-28.439L116.518 286.078l-43.884-25.031-45.228 25.693v-23.547"/><path d="M223.087 224.635l24.452 11.344"/></g><path d="M354.247 372.635c1.018 0 1.843.476 1.843 1.062s-.825 1.062-1.843 1.062-1.843-.475-1.843-1.062.825-1.062 1.843-1.062zm-101.167 17.364c1.018 0 1.843.475 1.843 1.061s-.825 1.062-1.843 1.062-1.843-.475-1.843-1.062.825-1.061 1.843-1.061zm-45.364-102.037c1.018 0 1.843.475 1.843 1.061s-.825 1.062-1.843 1.062-1.843-.475-1.843-1.062.825-1.061 1.843-1.061zm-65.529 38.099c1.018 0 1.843.475 1.843 1.061s-.825 1.062-1.843 1.062-1.843-.475-1.843-1.062.825-1.061 1.843-1.061zm-25.693-41.147c1.018 0 1.843.475 1.843 1.061s-.825 1.062-1.843 1.062-1.843-.475-1.843-1.062.825-1.061 1.843-1.061zm-89.018.265c1.018 0 1.843.475 1.843 1.061s-.825 1.062-1.843 1.062-1.843-.475-1.843-1.062.825-1.061 1.843-1.061zM160.43 259.81c1.018 0 1.843.475 1.843 1.062s-.825 1.061-1.843 1.061-1.843-.475-1.843-1.061.825-1.062 1.843-1.062zM98.767 392.061c1.018 0 1.843.475 1.843 1.062s-.825 1.061-1.843 1.061-1.843-.475-1.843-1.061.825-1.062 1.843-1.062zm151.911-184.504c1.018 0 1.843.475 1.843 1.061s-.825 1.062-1.843 1.062-1.843-.475-1.843-1.062.825-1.061 1.843-1.061zm-27 16c1.018 0 1.843.475 1.843 1.061s-.825 1.062-1.843 1.062-1.843-.475-1.843-1.062.825-1.061 1.843-1.061zm-46.453 123.298c1.018 0 1.843.475 1.843 1.061s-.825 1.062-1.843 1.062-1.843-.475-1.843-1.062.825-1.061 1.843-1.061zM72.489 260.315c1.018 0 1.843.475 1.843 1.061s-.825 1.062-1.843 1.062-1.843-.475-1.843-1.062.825-1.061 1.843-1.061zm76.321-62.713c1.018 0 1.843.475 1.843 1.062s-.825 1.061-1.843 1.061-1.843-.475-1.843-1.061.825-1.062 1.843-1.062zm42.598-23.828c1.018 0 1.843.476 1.843 1.062s-.825 1.062-1.843 1.062-1.843-.475-1.843-1.062.825-1.062 1.843-1.062zm-97.159-7.589c1.018 0 1.843.475 1.843 1.061s-.825 1.062-1.843 1.062-1.843-.475-1.843-1.062.825-1.061 1.843-1.061zm204.648 13.335c1.018 0 1.843.475 1.843 1.061s-.825 1.062-1.843 1.062-1.843-.475-1.843-1.062.825-1.061 1.843-1.061zm-109.982-64.056c1.018 0 1.843.475 1.843 1.061s-.825 1.062-1.843 1.062-1.843-.475-1.843-1.062.825-1.061 1.843-1.061zm24.097-14.518c1.018 0 1.843.475 1.843 1.062s-.825 1.061-1.843 1.061-1.843-.475-1.843-1.061.825-1.062 1.843-1.062z" fill="#00E4FF"/><g transform="translate(325 27)"><path d="M304.902 216.355v47.502c.041.967-.144 1.978-.668 2.885-.41.71-.999 1.299-1.708 1.708l-123.848 71.503a11.67 11.67 0 0 1-11.669 0L5.518 246.719a4.67 4.67 0 0 1-2.311-4.511l-.023-47.502h14.335l272.863 21.649h14.521z" fill="url(#A)"/><path d="M173.172 341.514V207.056l117.209 9.299h14.521v47.502c.041.967-.144 1.978-.668 2.885-.41.71-.999 1.299-1.708 1.708l-123.848 71.503c-1.707.986-3.601 1.505-5.505 1.559z" fill="url(#B)"/><path d="M268.687 281.059c0-.342.182-.658.478-.829l30.051-17.35a.48.48 0 0 1 .717.414v.463c0 .342-.182.657-.478.828l-30.051 17.35a.48.48 0 0 1-.717-.414v-.463zm0-6.248c0-.342.182-.658.478-.829l30.051-17.35a.48.48 0 0 1 .717.414v.463c0 .342-.182.658-.478.828l-30.051 17.35a.48.48 0 0 1-.717-.414v-.463zm0-6c0-.342.182-.658.478-.829l30.051-17.35a.48.48 0 0 1 .717.414v.463c0 .342-.182.658-.478.828l-30.051 17.35a.48.48 0 0 1-.717-.414v-.463z" fill="#0848B0" opacity=".8"/><path d="M141.035 119.935l161.49 93.236a4.67 4.67 0 0 1 0 8.084l-123.848 71.503a11.67 11.67 0 0 1-11.669 0L5.518 199.523a4.67 4.67 0 0 1-1.708-6.376c.41-.71.999-1.299 1.708-1.708l123.848-71.503c3.611-2.085 8.059-2.085 11.669 0z" fill="url(#C)"/><path d="M304.902 197.355v7.502c.041.967-.144 1.978-.668 2.885-.41.71-.999 1.299-1.708 1.708l-123.848 71.503a11.67 11.67 0 0 1-11.669 0L5.518 187.719a4.67 4.67 0 0 1-2.311-4.511l-.023-7.502h14.335l272.863 21.649h14.521z" fill="url(#D)"/><path d="M141.035 100.935l161.49 93.236a4.67 4.67 0 0 1 0 8.084l-123.848 71.503a11.67 11.67 0 0 1-11.669 0L5.518 180.523a4.67 4.67 0 0 1-1.708-6.376c.41-.71.999-1.299 1.708-1.708l123.848-71.503c3.611-2.085 8.059-2.085 11.669 0z" fill="url(#E)"/><g fill="url(#F)"><path d="M160.274 170.481l-21.485 9.663c-9.635 6.326-11.12 10.458-4.455 12.395 9.997 2.906 21.006-5.167 21.006-5.167l19.976-16.89c-14.274 7.271-21.323 10.492-21.146 9.663s3.692-4.669 10.546-11.521l-4.442 1.858z"/><path d="M68.797 183.515c-9.635 6.325-4.052 10.632 2.718 11.3 4.513.445 13.707-6.554 27.583-20.997l-5.752-2.429 2.031 2.429-12.322 7.527 4.177-4.818-4.177-2.709 1.012 1.901-15.269 7.796z"/></g><path d="M143.08 114.809l125.393 72.396c1.733 1 2.327 3.217 1.327 4.951a3.62 3.62 0 0 1-1.327 1.327l-10.741 6.201a9.06 9.06 0 0 1-9.061 0l-125.393-72.395c-1.733-1.001-2.327-3.218-1.327-4.951a3.63 3.63 0 0 1 1.327-1.327l10.741-6.201a9.06 9.06 0 0 1 9.061 0z" fill="#BAEBFF"/><g transform="translate(129.5 2)"><path d="M134.501 76.794v108.317a2 2 0 0 1-1.016 1.742c-.29.164-2.86 1.796-3.218 1.796-.234 0-41.715-24.789-124.444-74.366a4 4 0 0 1-2-3.464L1.182 3.196c0-.715 2.961-2.06 3.582-2.39S5.434.502 5.824.502a2 2 0 0 1 1 .268l125.678 72.56a4 4 0 0 1 2 3.464z" fill="url(#C)"/><path d="M131.387 78.569v108.317a2 2 0 0 1-3 1.732L2.71 116.058a4 4 0 0 1-2-3.464V4.277a2 2 0 0 1 3-1.732l125.678 72.56a4 4 0 0 1 2 3.464z" fill="#DFF3FF"/><g fill-rule="nonzero"><path d="M4.71 112.593l122.678 70.828V78.569L4.71 7.741z" fill="url(#G)"/><path d="M11.418 108.934l108.638 62.722V82.803L11.418 20.081z" fill="#99CBFF"/><use filter="url(#J)" xlink:href="#I" fill="#000"/><use xlink:href="#I" fill="url(#H)"/><path d="M8.418 37.071l108.638 62.722v-14.99L8.418 22.081z" fill="#2296F3"/></g><path d="M51.728 69.064l17.02 9.812v2.484l-17.02-9.812z" fill="#BAEBFF"/><path d="M33.62 68.461l1.474.85a2.15 2.15 0 0 1 1.076 1.862.72.72 0 0 1-.718.718c-.126 0-.249-.033-.358-.096l-1.474-.85a2.15 2.15 0 0 1-1.076-1.862.72.72 0 0 1 1.076-.622zm8.489 4.895l1.474.85a2.15 2.15 0 0 1 1.076 1.862.72.72 0 0 1-.718.718c-.126 0-.249-.033-.358-.096l-1.474-.85a2.15 2.15 0 0 1-1.076-1.862.72.72 0 0 1 .718-.718c.126 0 .249.033.358.096zm8.531 4.918l1.474.85a2.15 2.15 0 0 1 1.076 1.862.72.72 0 0 1-1.076.622l-1.474-.85a2.15 2.15 0 0 1-1.076-1.862.72.72 0 0 1 .718-.718c.126 0 .249.033.358.096zm8.861 5.108l1.474.85a2.15 2.15 0 0 1 1.076 1.862.72.72 0 0 1-.718.718c-.126 0-.249-.033-.358-.096l-1.474-.85a2.15 2.15 0 0 1-1.076-1.862.72.72 0 0 1 .718-.718c.126 0 .249.033.358.096zm9.004 5.191l1.474.85a2.15 2.15 0 0 1 1.076 1.862.72.72 0 0 1-.718.717c-.126 0-.249-.033-.358-.096l-1.474-.85a2.15 2.15 0 0 1-1.076-1.862.72.72 0 0 1 .718-.717c.126 0 .249.033.358.096zm16.885 9.734l1.474.85a2.15 2.15 0 0 1 1.076 1.862.72.72 0 0 1-.718.718c-.126 0-.249-.033-.358-.096l-1.474-.85a2.15 2.15 0 0 1-1.076-1.862.72.72 0 0 1 .718-.718c.126 0 .249.033.358.096z" fill="#3DB9FF"/><path d="M17.839 72.726l12.261 7.068a1.46 1.46 0 0 1 .731 1.265c0 .27-.218.487-.487.487a.49.49 0 0 1-.243-.065l-12.261-7.069a1.46 1.46 0 0 1-.731-1.265c0-.269.218-.487.487-.487.085 0 .169.022.243.065zm0 4.311l12.261 7.069a1.46 1.46 0 0 1 .731 1.265c0 .269-.218.487-.487.487-.085 0-.169-.022-.243-.065l-12.261-7.069a1.46 1.46 0 0 1-.731-1.265c0-.269.218-.487.487-.487.085 0 .169.022.243.065z" fill="#BAEBFF"/><path d="M18.214 87.14l7.982 4.602a2.21 2.21 0 0 1 1.105 1.913c0 .407-.33.737-.737.737a.74.74 0 0 1-.368-.099l-7.982-4.602c-.684-.394-1.105-1.123-1.105-1.913 0-.407.33-.737.737-.737a.74.74 0 0 1 .368.099z" fill="#3DB9FF"/><path d="M15.367 32.399l12.398 7.147a3.43 3.43 0 0 1 1.716 2.971c0 .632-.512 1.145-1.145 1.145-.201 0-.398-.053-.572-.153l-12.398-7.147a3.43 3.43 0 0 1-1.716-2.971c0-.632.512-1.145 1.145-1.145.201 0 .398.053.572.153z" fill="#DFF3FF"/><path d="M18.214 100.626l7.982 4.602a2.21 2.21 0 0 1 1.105 1.913c0 .407-.33.737-.737.737a.74.74 0 0 1-.368-.099l-7.982-4.602c-.684-.394-1.105-1.123-1.105-1.913 0-.407.33-.737.737-.737a.74.74 0 0 1 .368.099z" fill="#3DB9FF"/><path d="M20.512 93.982l5.294 3.052c.566.326.915.93.915 1.583a.61.61 0 0 1-.915.529l-5.294-3.052a1.83 1.83 0 0 1-.915-1.583.61.61 0 0 1 .61-.61c.107 0 .212.028.305.082zm0 13.486l5.294 3.052c.566.326.915.93.915 1.583a.61.61 0 0 1-.915.529l-5.294-3.052a1.83 1.83 0 0 1-.915-1.583.61.61 0 0 1 .61-.61c.107 0 .212.028.305.082zm13.012-5.984l5.294 3.052c.566.326.915.93.915 1.583a.61.61 0 0 1-.915.529l-5.294-3.052a1.83 1.83 0 0 1-.915-1.583.61.61 0 0 1 .61-.61c.107 0 .212.028.305.082zm0 13.486l5.294 3.052c.566.326.915.93.915 1.583a.61.61 0 0 1-.915.529l-5.294-3.052a1.83 1.83 0 0 1-.915-1.583.61.61 0 0 1 .61-.61c.107 0 .212.028.305.082zm12.981-6.002l5.294 3.052c.566.326.915.93.915 1.583a.61.61 0 0 1-.915.529l-5.294-3.052a1.83 1.83 0 0 1-.915-1.583.61.61 0 0 1 .61-.61c.107 0 .212.028.305.082zm0 13.486l5.294 3.052c.566.326.915.93.915 1.583a.61.61 0 0 1-.915.529l-5.294-3.052a1.83 1.83 0 0 1-.915-1.583.61.61 0 0 1 .61-.61c.107 0 .212.028.305.082zm12.981-6.002l5.294 3.052c.566.326.915.93.915 1.583a.61.61 0 0 1-.915.529l-5.294-3.052a1.83 1.83 0 0 1-.915-1.583.61.61 0 0 1 .61-.61c.107 0 .212.028.305.082zm0 13.486l5.294 3.052c.566.326.915.93.915 1.583a.61.61 0 0 1-.915.529l-5.294-3.052a1.83 1.83 0 0 1-.915-1.583.61.61 0 0 1 .61-.61c.107 0 .212.028.305.082zm12.981-6.002l5.294 3.052c.566.326.915.93.915 1.583a.61.61 0 0 1-.915.529l-5.294-3.052a1.83 1.83 0 0 1-.915-1.583.61.61 0 0 1 .61-.61c.107 0 .212.028.305.082zm12.981 7.484l5.294 3.052c.566.326.915.93.915 1.583a.61.61 0 0 1-.915.529l-5.294-3.052a1.83 1.83 0 0 1-.915-1.583.61.61 0 0 1 .61-.61c.107 0 .212.028.305.082zm12.981 7.484l5.294 3.052c.566.326.915.93.915 1.583a.61.61 0 0 1-.915.529l-5.294-3.052a1.83 1.83 0 0 1-.915-1.583.61.61 0 0 1 .61-.61c.107 0 .212.028.305.082z" fill="#BAEBFF"/><path d="M17.109 81.285L108.72 134.1v.386L17.109 81.671z" fill="#2296F3"/><path d="M17.109 75.285L108.72 128.1v.386L17.109 75.671z" fill="#BAEBFF"/><path d="M75.573 92.647l1.474.85a2.15 2.15 0 0 1 1.076 1.862.72.72 0 0 1-.718.717c-.126 0-.249-.033-.358-.096l-1.474-.85a2.15 2.15 0 0 1-1.076-1.862.72.72 0 0 1 1.076-.622z" fill="#D8D8D8"/><path d="M77.922 100.116c2.031 1.171 3.678-.061 3.678-2.752s-1.647-5.822-3.678-6.993-3.678.061-3.678 2.752 1.647 5.822 3.678 6.993zM48.483 69.868c.597.344 1.082-.018 1.082-.81s-.484-1.712-1.082-2.057-1.082.018-1.082.81.484 1.712 1.082 2.057zm23.655 13.637c.597.345 1.082-.018 1.082-.809s-.484-1.712-1.082-2.057-1.082.018-1.082.81.484 1.712 1.082 2.057z" fill="#2296F3"/></g><path d="M166.935 299.826v26.671a2.38 2.38 0 0 1-1.208 2.071c-.345.195-3.401 2.136-3.826 2.136-.278 0-49.603-29.476-147.975-88.428-1.472-.85-2.378-2.42-2.378-4.119l-3.142-25.846c0-.851 3.521-2.45 4.259-2.842s.798-.361 1.261-.361a2.38 2.38 0 0 1 1.189.318l149.442 86.281c1.472.85 2.378 2.42 2.378 4.119z" fill="url(#C)"/><path d="M163.232 301.936v26.671a2.38 2.38 0 0 1-3.567 2.06L10.222 244.386c-1.472-.85-2.378-2.42-2.378-4.119v-26.671a2.38 2.38 0 0 1 3.567-2.06l149.442 86.281c1.472.85 2.378 2.42 2.378 4.119z" fill="url(#K)"/><path d="M151.678 315.999c-2.031-1.171-3.678-4.302-3.678-6.993s1.647-3.923 3.678-2.752 3.678 4.302 3.678 6.993-1.647 3.923-3.678 2.752zm-19.947-11.485c-2.031-1.171-3.678-4.302-3.678-6.993s1.647-3.923 3.678-2.752 3.678 4.302 3.678 6.993-1.647 3.923-3.678 2.752zm-19-11c-2.031-1.171-3.678-4.302-3.678-6.993s1.647-3.923 3.678-2.752 3.678 4.302 3.678 6.993-1.647 3.923-3.678 2.752z" fill="#00CFFF"/><path d="M93.328 268.146v3.058L16.09 227.749v-3.059l77.238 43.455zm0 10.383v3.059L16.09 238.132v-3.059l77.238 43.455z" fill="#0C4EB9"/><g transform="translate(.495 .649)"><path d="M101.956 59.606v84.51a1.56 1.56 0 0 1-2.341 1.351L1.56 88.856A3.12 3.12 0 0 1 0 86.153V1.643A1.56 1.56 0 0 1 2.341.291l98.055 56.612a3.12 3.12 0 0 1 1.56 2.703z" transform="matrix(-1 0 0 1 101.956497 0)" fill="url(#K)" opacity=".7"/><g transform="matrix(-1 0 0 1 113.560745 0)" opacity=".8"><use filter="url(#N)" xlink:href="#M" fill="#000"/><use xlink:href="#M" fill="url(#L)"/></g></g><path d="M103.276 14.592v57.325l-91.459 51.456V66.048l91.459-51.456zM12.139 66.293v10.948l12.697-7.143V59.15l-12.697 7.143zm0 11.375v10.948l12.697-7.143V70.524l-12.697 7.143zm13.019-18.699v10.948l12.697-7.143V51.825l-12.697 7.143zm0 11.375V81.29l12.697-7.143V63.199l-12.697 7.143zm13.019-18.699v10.948l12.697-7.143V44.5l-12.697 7.143zm0 11.375v10.948l12.697-7.143V55.874l-12.697 7.143zm13.019-18.699v10.948l12.697-7.143V37.175l-12.697 7.143zm0 11.375v10.948l12.697-7.143V48.549l-12.697 7.143zm13.019-18.699v10.948l12.697-7.143V29.85l-12.697 7.143zm0 11.375v10.948l12.697-7.143V41.224l-12.697 7.143zm13.019-18.699v10.948l12.697-7.143V22.525l-12.697 7.143zm0 11.375v10.948l12.697-7.143V33.899l-12.697 7.143zm13.019-18.699v10.948l12.697-7.143V15.2l-12.697 7.143zm0 11.375v10.948l12.697-7.143V26.575l-12.697 7.143zM12.139 89.042V99.99l12.697-7.143V81.899l-12.697 7.143zm13.019-7.325v10.948l12.697-7.143V74.574l-12.697 7.143zm13.019-7.325V85.34l12.697-7.143V67.249l-12.697 7.143zm13.019-7.325v10.948l12.697-7.143V59.924l-12.697 7.143zm13.019-7.325V70.69l12.697-7.143V52.599l-12.697 7.143zm13.019-7.325v10.948l12.697-7.143V45.274l-12.697 7.143zm13.019-7.325V56.04l12.697-7.143V37.949l-12.697 7.143zm-78.117 55.324v10.948l12.697-7.143V93.273l-12.697 7.143zm13.019-7.325v10.948l12.697-7.143V85.948l-12.697 7.143zm13.019-7.325v10.948l12.697-7.143V78.623l-12.697 7.143zm13.019-7.325V89.39l12.697-7.143V71.298l-12.697 7.143zm13.019-7.325v10.948l12.697-7.143V63.973l-12.697 7.143zm13.019-7.325V74.74l12.697-7.143V56.649l-12.697 7.143zm13.019-7.325v10.948l12.697-7.143V49.324l-12.697 7.143zm-78.117 55.324v10.948l12.697-7.143v-10.948l-12.697 7.143zm13.019-7.325v10.948l12.697-7.143V97.323l-12.697 7.143zm13.019-7.325v10.948l12.697-7.143V89.998l-12.697 7.143zm13.019-7.325v10.948l12.697-7.143V82.673l-12.697 7.143zm13.019-7.325v10.948l12.697-7.143V75.348l-12.697 7.143zm13.019-7.325v10.948l12.697-7.143V68.023l-12.697 7.143zm13.019-7.325v10.948l12.697-7.143V60.698l-12.697 7.143z" fill="#BAEBFF" fill-rule="nonzero"/><path d="M25.924 59.19l50.057-28.163v9.669L25.924 68.859zm0 22.749l37.002-20.817v9.668L25.924 91.608zm26.11 8.046l23.947-13.473v9.669L52.034 99.654zm25.848-25.95l11.51-6.476v9.669l-11.51 6.476z" fill="#2344A0" opacity=".548"/><path d="M27.924 60.19l50.057-28.163v9.669L27.924 69.859z" fill="#FF8BA3"/><path d="M27.924 82.939l37.002-20.818v9.669L27.924 92.608z" fill="#AE81ED"/><path d="M54.034 90.986l23.947-13.473v9.669l-23.947 13.473z" fill="#FF9247"/><path d="M79.882 65.035l11.51-6.476v9.669l-11.51 6.476z" fill="#5EDBD5"/><path d="M88.208 144.217L86.313 173.6l-2.824.314 4.719 2.163v-1.813l5.296-22.854 3.177 20.01-2.78.166 4.233 2.678 1.007-.664-.565-31.47z" fill="url(#O)"/><path d="M86.788 165.387l3.451.452 3.264-13.382 2.273 13.382 3.295-.854-.35-23.699-11.072 3.031z" fill="url(#C)"/><path d="M100.743 128.833l.676 5.388-2.912 4.985v-2.548l.89-3.082-.89-4.743z" fill="url(#O)"/><path d="M87.459 144.378c4.808 2.169 8.706 1.32 11.693-2.548l-.907-12.623 3.196-.257c-.681-6.298-2.67-9.318-5.966-9.061s-5.968 3.278-8.016 9.061l1.077 2.607-1.077 12.82z" fill="url(#P)"/><path d="M88.144 129.943l3.1 1.087-2.223 3.667a1 1 0 0 1-1.374.336l-.017-.01-8.752-5.545-1.406-1.436v-1.977l1.03 1.018.638.106c.856.143 1.483.883 1.483 1.75l6.536 2.841.984-1.837z" fill="url(#Q)"/><g fill="#0D50BD"><path d="M86.342 173.499l-3.448.204 4.464 2.902 1.153-.335v-2.771h-2.169zm10.692-2.235l-3.448.204 4.464 2.902 1.153-.335v-2.771h-2.169z"/><path d="M97.034 171.264l-3.448.204 4.464 2.902 1.153-.335v-2.771z"/></g><path d="M89.909 111.667c-.56 3.162-.422 5.217.413 6.166s1.763 1.423 2.785 1.423v2.428l2.165-1.141v-3.325c1.497-1.249 2.088-2.651 1.771-4.208-.429-2.112-2.489-3.475-4.601-3.046a3.9 3.9 0 0 0-2.227 1.335l-.305.369z" fill="url(#O)"/><path d="M89.504 113.651c.67 1.538 1.853 2.644 3.547 3.318 2.542 1.01-2.773 4.452-1.774 7.658s5.251 1.792 4.67 5.724c2.531-2.135 3.643-4.725 3.337-7.769-.459-4.566-2.384-4.086-1.619-8.447s-5.095-6.69-7.799-2.943l-.311.743c-.228.546-.247 1.158-.052 1.717z" fill="#313131"/><path d="M171.771 141.381l1.895 29.383 2.824.314-4.719 2.163v-1.813l-5.296-22.854-3.154 19.817h2.544l-4.018 3.037-1.007-.664.565-31.47z" fill="url(#R)"/><path d="M159.236 125.997h2.235l-.89 4.743.89 3.083v2.547l-2.912-4.985z" fill="url(#O)"/><path d="M172.52 141.542c-4.808 2.169-8.706 1.32-11.693-2.548l.907-12.623-3.196-.257c.681-6.298 2.67-9.318 5.966-9.061s5.968 3.278 8.016 9.061l-1.077 2.607 1.077 12.82z" fill="url(#H)"/><path d="M171.835 127.107l.984 1.837 6.536-2.841c0-.868.627-1.608 1.483-1.75l.638-.106 1.03-1.018v1.977l-1.406 1.436-8.769 5.556a1 1 0 0 1-1.374-.336l-2.223-3.667 3.1-1.087z" fill="url(#Q)"/><path d="M170.07 108.831c.56 3.162.422 5.217-.413 6.166s-1.763 1.423-2.785 1.423v2.428l-2.165-1.141v-3.325c-1.497-1.249-2.088-2.651-1.771-4.208.429-2.111 2.489-3.475 4.601-3.046a3.9 3.9 0 0 1 2.227 1.335l.305.369z" fill="url(#O)"/><path d="M169.41 108.173c-.389 1.2-1.32 1.938-2.795 2.213l-.029 1.63c-.388-.892-.99-1.281-1.806-1.167-1.224.17.371 2.658.905 3.022.356.243.055.883-.905 1.919-1.967-1.071-3.105-2.341-3.413-3.809-.462-2.201-1.311-4.667.488-5.152s3.445-3.466 7.309-1.976c2.576.993 2.658 2.1.246 3.32z" fill="url(#S)"/><path d="M293.354 229.256l48.264 27.865v25.73l-48.264 27.865-48.264-27.865v-25.73z" fill="url(#T)"/><path d="M293.354 284.986v25.73l-48.264-27.865v-25.73z" fill="url(#C)"/><path d="M293.354 284.986l48.264-27.865v25.73l-48.264 27.865z" fill="url(#U)"/><path d="M329.949 277.87v6.735l-4.966 2.867v-6.736l4.966-2.867zm3-1.732l4.669-2.695v6.736l-4.669 2.695v-6.736z" fill="url(#E)" opacity=".2"/><path d="M189.365 163.204c-.86-.848-2.851-1.759-4.808 0-1.305 1.172-1.997 2.597-2.078 4.273l-1.639 1.753c-5.662 1.651-8.388 5.845-8.179 12.58l1.395 2.165c1.829 1.311 3.195 1.966 4.099 1.966 1.356 0 6.574-2.609 7.439-4.131.086-.961-1.031-1.033-3.352-.214l.708-1.223c.732.692 1.469.833 2.209.423 1.11-.615-.036-1.858-.441-2.028v-1.77l1.073-1.076.305 4.301c.24 1.29.928 1.876 2.064 1.761 1.704-.174 1.379-1.847 0-2.39l.582-7.092.317-2.18c2.895-2.308 4.453-3.858 4.675-4.651.332-1.189-.747-2.247-1.471-2.467s-2.038.848-2.898 0z" fill="url(#V)"/><g fill="url(#W)"><path d="M174.717 182.538c.518.164.518.572 0 1.225-.777.98-5.879-.059-7.276-5.16-.931-3.4.176-5.424 3.323-6.07l.387.463 1.191-.463v.463h1.161c-2.805 1.384-3.839 3.157-3.1 5.318s2.177 3.569 4.315 4.224z"/><path d="M187.907 165.689c-.425.672-.638 1.535-.638 2.588 0 3.048.834 3.951 2.373 4.403s1.648-.568 1.105-1.618-1.335-2.203-1.105-3.639c.06-.377.097-.766.11-1.168a1 1 0 0 0-1.844-.566z"/></g><path d="M219.865 276l36.82 22.088v20.396l-36.82 22.088-36.82-22.088v-20.396z" fill="url(#T)"/><path d="M219.865 320.176v20.396l-36.82-22.088v-20.396z" fill="url(#C)"/><path d="M219.865 320.176l36.82-22.088v20.396l-36.82 22.088z" fill="url(#U)"/><path d="M247.783 314.535v5.339l-3.788 2.272v-5.339l3.788-2.272zm2.289-1.373l3.562-2.137v5.339l-3.562 2.137v-5.339z" fill="url(#E)" opacity=".2"/></g><path d="M278.49 73.39v2.547c.014.328-.049.671-.227.979-.139.241-.339.441-.58.58l-42.044 24.274a3.96 3.96 0 0 1-3.961 0l-54.823-31.652c-.557-.321-.845-.93-.785-1.531l-.008-2.547h4.866l92.632 7.35h4.93z" fill="url(#D)"/><path d="M222.86 40.657l54.823 31.652c.758.438 1.018 1.407.58 2.165a1.58 1.58 0 0 1-.58.58l-42.044 24.274a3.96 3.96 0 0 1-3.961 0l-54.823-31.652c-.758-.437-1.018-1.407-.58-2.165.139-.241.339-.441.58-.58l42.044-24.274a3.96 3.96 0 0 1 3.961 0z" fill="url(#E)"/><path d="M160.49 141.39v2.547c.014.328-.049.671-.227.979-.139.241-.339.441-.58.58l-42.044 24.274a3.96 3.96 0 0 1-3.961 0l-54.823-31.652c-.557-.321-.845-.93-.785-1.531l-.008-2.547h4.866l92.632 7.35h4.93z" fill="url(#D)"/><path d="M104.86 108.657l54.823 31.652c.758.438 1.018 1.407.58 2.165a1.58 1.58 0 0 1-.58.58l-42.044 24.274a3.96 3.96 0 0 1-3.961 0l-54.823-31.652c-.758-.437-1.018-1.407-.58-2.165.139-.241.339-.441.58-.58l42.044-24.274a3.96 3.96 0 0 1 3.961 0z" fill="url(#E)"/><path d="M102.49 257.39v2.547c.014.328-.049.671-.227.979-.139.241-.339.441-.58.58L59.639 285.77a3.96 3.96 0 0 1-3.961 0L.855 254.118c-.557-.321-.845-.93-.785-1.531l-.008-2.547h4.866l92.632 7.35h4.93z" fill="url(#D)"/><path d="M46.86 224.657l54.823 31.652c.758.438 1.018 1.407.58 2.165a1.58 1.58 0 0 1-.58.58l-42.044 24.274a3.96 3.96 0 0 1-3.961 0L.855 251.675c-.758-.437-1.018-1.407-.58-2.165.139-.241.339-.441.58-.58l42.044-24.274a3.96 3.96 0 0 1 3.961 0z" fill="url(#E)"/><g transform="matrix(-1 0 0 1 103 185)"><g transform="translate(.215 .281)"><path d="M44.217 25.851v36.651c0 .374-.303.677-.677.677-.119 0-.235-.031-.338-.091L.677 38.536C.258 38.294 0 37.847 0 37.363V.712C0 .339.303.036.677.036c.119 0 .235.031.338.091L43.54 24.678c.419.242.677.689.677 1.172z" transform="matrix(-1 0 0 1 44.217125 0)" fill="url(#X)" opacity=".4"/><g transform="matrix(-1 0 0 1 49.249733 0)" opacity=".8"><use filter="url(#a)" xlink:href="#Z" fill="#000"/><use xlink:href="#Z" fill="url(#Y)"/></g></g><path d="M44.789 6.328v24.861L5.125 53.505V28.644L44.789 6.328zM5.265 28.75v4.748l5.506-3.098v-4.748L5.265 28.75zm0 4.933v4.748l5.506-3.098v-4.748l-5.506 3.098zm5.646-8.11v4.748l5.506-3.098v-4.748l-5.506 3.098zm0 4.933v4.748l5.506-3.098v-4.748l-5.506 3.098zm5.646-8.11v4.748l5.506-3.098v-4.748l-5.506 3.098zm0 4.933v4.748l5.506-3.098v-4.748l-5.506 3.098zm5.646-8.11v4.748l5.506-3.098v-4.748l-5.506 3.098zm0 4.933v4.748l5.506-3.098v-4.748l-5.506 3.098zm5.646-8.11v4.748l5.506-3.098v-4.748l-5.506 3.098zm0 4.933v4.748l5.506-3.098v-4.748l-5.506 3.098zm5.646-8.11v4.748l5.506-3.098V9.769l-5.506 3.098zm0 4.933v4.748l5.506-3.098v-4.748L33.497 17.8zm5.646-8.11v4.748l5.506-3.098V6.592L39.143 9.69zm0 4.933v4.748l5.506-3.098v-4.748l-5.506 3.098zM5.265 38.616v4.748l5.506-3.098v-4.748l-5.506 3.098zm5.646-3.177v4.748l5.506-3.098v-4.748l-5.506 3.098zm5.646-3.177v4.748l5.506-3.098v-4.748l-5.506 3.098zm5.646-3.177v4.748l5.506-3.098v-4.748l-5.506 3.098zm5.646-3.177v4.748l5.506-3.098v-4.748l-5.506 3.098zm5.646-3.177v4.748l5.506-3.098v-4.748l-5.506 3.098zm5.646-3.177v4.748l5.506-3.098v-4.748l-5.506 3.098zM5.265 43.549v4.748l5.506-3.098v-4.748l-5.506 3.098zm5.646-3.177v4.748l5.506-3.098v-4.748l-5.506 3.098zm5.646-3.177v4.748l5.506-3.098v-4.748l-5.506 3.098zm5.646-3.177v4.748l5.506-3.098v-4.748l-5.506 3.098zm5.646-3.177v4.748l5.506-3.098v-4.748l-5.506 3.098zm5.646-3.177v4.748l5.506-3.098v-4.748l-5.506 3.098zm5.646-3.177v4.748l5.506-3.098v-4.748l-5.506 3.098zM5.265 48.482v4.748l5.506-3.098v-4.748l-5.506 3.098zm5.646-3.177v4.748l5.506-3.098v-4.748l-5.506 3.098zm5.646-3.177v4.748l5.506-3.098v-4.748l-5.506 3.098zm5.646-3.177V43.7l5.506-3.098v-4.748l-5.506 3.098zm5.646-3.177v4.748l5.506-3.098v-4.748l-5.506 3.098zm5.646-3.177v4.748l5.506-3.098v-4.748l-5.506 3.098zm5.646-3.177v4.748l5.506-3.098v-4.748l-5.506 3.098z" fill="#FFD4E7" fill-rule="nonzero"/><path d="M11.243 25.67l21.709-12.214v4.193L11.243 29.863zm0 9.866l16.047-9.028v4.193l-16.047 9.028zm11.324 3.49l10.385-5.843v4.193l-10.385 5.843zm11.21-11.254l4.992-2.809v4.193l-4.992 2.809z" fill="#CC6196" opacity=".548"/><path d="M12.11 26.104L33.819 13.89v4.193L12.11 30.297z" fill="#fff"/><path d="M12.11 35.97l16.047-9.028v4.193L12.11 40.163z" fill="#FFDBF8"/><path d="M23.434 39.459l10.385-5.843v4.193l-10.385 5.843z" fill="#fff"/><path d="M34.644 28.205l4.992-2.809v4.193l-4.992 2.809z" fill="#FFDBF8"/></g><path d="M318.49 363.39v2.547c.014.328-.049.671-.227.979-.139.241-.339.441-.58.58l-42.044 24.274a3.96 3.96 0 0 1-3.961 0l-54.823-31.652c-.557-.321-.845-.93-.785-1.531l-.008-2.547h4.866l92.632 7.35h4.93z" fill="url(#D)"/><path d="M262.86 330.657l54.823 31.652c.758.438 1.018 1.407.58 2.165a1.58 1.58 0 0 1-.58.58l-42.044 24.274a3.96 3.96 0 0 1-3.961 0l-54.823-31.652c-.758-.437-1.018-1.407-.58-2.165.139-.241.339-.441.58-.58l42.044-24.274a3.96 3.96 0 0 1 3.961 0z" fill="url(#E)"/><path d="M187.467 363.02c-.405.026-.77-.141-.815-.373l-.648-3.335c-.03-.154.165-.293.435-.311a.86.86 0 0 1 .109 0l5.836.371c.405.026.697.234.652.466s-.41.398-.815.373l-4.461-.283c-.068-.004-.128.024-.136.062-.001.005-.001.01 0 .016l.496 2.549c.045.232-.247.44-.652.466zm3.48 1.989c-.405.026-.77-.141-.815-.373l-.648-3.335c-.03-.154.165-.293.435-.311a.86.86 0 0 1 .109 0l5.836.371c.405.026.697.234.652.466s-.41.398-.815.373l-4.461-.283c-.068-.004-.128.024-.136.062-.001.005-.001.01 0 .016l.496 2.549c.045.232-.247.44-.652.466zm3.48 1.989c-.405.026-.77-.141-.815-.373l-.648-3.335c-.03-.154.165-.293.435-.311a.86.86 0 0 1 .109 0l5.836.371c.405.026.697.234.652.466s-.41.398-.815.373l-4.461-.283c-.068-.004-.128.024-.136.062-.001.005-.001.01 0 .016l.496 2.549c.045.232-.247.44-.652.466zm-79.96-177.977c-.405.026-.77-.141-.815-.373l-.648-3.335c-.03-.155.165-.293.435-.311.036-.002.073-.002.109 0l5.836.37c.405.026.697.234.652.466s-.41.398-.815.373l-4.461-.283c-.068-.004-.128.023-.136.062-.001.005-.001.01 0 .016l.496 2.549c.045.231-.247.44-.652.466zm3.48 1.989c-.405.026-.77-.141-.815-.373l-.648-3.335c-.03-.154.165-.293.435-.311a1.01 1.01 0 0 1 .109 0l5.836.371c.405.026.697.234.652.466s-.41.398-.815.373l-4.461-.283c-.068-.004-.128.023-.136.062-.001.005-.001.01 0 .016l.496 2.549c.045.231-.247.44-.652.466zm3.48 1.989c-.405.025-.77-.141-.815-.373l-.648-3.335c-.03-.154.165-.293.435-.311a.81.81 0 0 1 .109 0l5.836.371c.405.026.697.234.652.466s-.41.398-.815.373l-4.461-.283c-.068-.004-.128.024-.136.063-.001.005-.001.01 0 .015l.496 2.549c.045.231-.247.44-.652.466zm106.04-55.978c-.405.026-.77-.141-.815-.373l-.648-3.335c-.03-.155.165-.293.435-.311a.81.81 0 0 1 .109 0l5.836.37c.405.026.697.234.652.466s-.41.398-.815.373l-4.461-.283c-.068-.004-.128.023-.136.062-.001.005-.001.01 0 .016l.496 2.549c.045.231-.247.44-.652.466zm3.48 1.989c-.405.026-.77-.141-.815-.373l-.648-3.335c-.03-.154.165-.293.435-.311a1.01 1.01 0 0 1 .109 0l5.836.371c.405.026.697.234.652.466s-.41.398-.815.373l-4.461-.283c-.068-.004-.128.023-.136.062-.001.005-.001.01 0 .016l.496 2.549c.045.231-.247.44-.652.466zm3.48 1.989c-.405.025-.77-.141-.815-.373l-.648-3.335c-.03-.154.165-.293.435-.311a.81.81 0 0 1 .109 0l5.836.371c.405.026.697.234.652.466s-.41.398-.815.373l-4.461-.283c-.068-.004-.128.024-.136.063-.001.005-.001.01 0 .015l.496 2.549c.045.231-.247.44-.652.466zM153.533 277.02c.405.026.77-.141.815-.373l.648-3.335c.03-.155-.165-.293-.435-.311a.81.81 0 0 0-.109 0l-5.836.37c-.405.026-.697.234-.652.466s.41.398.815.373l4.461-.283c.068-.004.128.023.136.062.001.005.001.01 0 .016l-.496 2.549c-.045.231.247.44.652.466zm-3.48 1.989c.405.025.77-.141.815-.373l.648-3.335c.03-.154-.165-.293-.435-.311a1.01 1.01 0 0 0-.109 0l-5.836.371c-.405.026-.697.234-.652.466s.41.398.815.373l4.461-.283c.068-.004.128.023.136.062.001.005.001.01 0 .016l-.496 2.549c-.045.231.247.44.652.466zm-3.48 1.989c.405.025.77-.141.815-.373l.648-3.335c.03-.154-.165-.293-.435-.311a.81.81 0 0 0-.109 0l-5.836.371c-.405.026-.697.234-.652.466s.41.398.815.373l4.461-.283c.068-.004.128.024.136.063.001.005.001.01 0 .015l-.496 2.549c-.045.231.247.44.652.466zm116.96-69.978c.405.026.77-.141.815-.373l.648-3.335c.03-.155-.165-.293-.435-.311a.81.81 0 0 0-.109 0l-5.836.37c-.405.026-.697.234-.652.466s.41.398.815.373l4.461-.283c.068-.004.128.023.136.062.001.005.001.01 0 .016l-.496 2.549c-.045.231.247.44.652.466zm-3.48 1.989c.405.026.77-.141.815-.373l.648-3.335c.03-.154-.165-.293-.435-.311a1.01 1.01 0 0 0-.109 0l-5.836.371c-.405.026-.697.234-.652.466s.41.398.815.373l4.461-.283c.068-.004.128.023.136.062.001.005.001.01 0 .016l-.496 2.549c-.045.231.247.44.652.466zm-3.48 1.989c.405.025.77-.141.815-.373l.648-3.335c.03-.154-.165-.293-.435-.311a.81.81 0 0 0-.109 0l-5.836.371c-.405.026-.697.234-.652.466s.41.398.815.373l4.461-.283c.068-.004.128.024.136.063.001.005.001.01 0 .015l-.496 2.549c-.045.231.247.44.652.466z" fill="#00E4FF" fill-rule="nonzero"/><g transform="translate(54 63)"><g transform="translate(.215 .281)"><path d="M44.217 25.851v36.651c0 .374-.303.677-.677.677-.119 0-.235-.031-.338-.091L.677 38.536C.258 38.294 0 37.847 0 37.363V.712C0 .339.303.036.677.036c.119 0 .235.031.338.091L43.54 24.678c.419.242.677.689.677 1.172z" transform="matrix(-1 0 0 1 44.217125 0)" fill="url(#X)" opacity=".4"/><g transform="matrix(-1 0 0 1 49.249733 0)" opacity=".8"><use filter="url(#d)" xlink:href="#c" fill="#000"/><use xlink:href="#c" fill="url(#b)"/></g></g><path d="M44.789 6.328v24.861L5.125 53.505V28.644L44.789 6.328zM5.265 28.75v4.748l5.506-3.098v-4.748L5.265 28.75zm0 4.933v4.748l5.506-3.098v-4.748l-5.506 3.098zm5.646-8.11v4.748l5.506-3.098v-4.748l-5.506 3.098zm0 4.933v4.748l5.506-3.098v-4.748l-5.506 3.098zm5.646-8.11v4.748l5.506-3.098v-4.748l-5.506 3.098zm0 4.933v4.748l5.506-3.098v-4.748l-5.506 3.098zm5.646-8.11v4.748l5.506-3.098v-4.748l-5.506 3.098zm0 4.933v4.748l5.506-3.098v-4.748l-5.506 3.098zm5.646-8.11v4.748l5.506-3.098v-4.748l-5.506 3.098zm0 4.933v4.748l5.506-3.098v-4.748l-5.506 3.098zm5.646-8.11v4.748l5.506-3.098V9.769l-5.506 3.098zm0 4.933v4.748l5.506-3.098v-4.748L33.497 17.8zm5.646-8.11v4.748l5.506-3.098V6.592L39.143 9.69zm0 4.933v4.748l5.506-3.098v-4.748l-5.506 3.098zM5.265 38.616v4.748l5.506-3.098v-4.748l-5.506 3.098zm5.646-3.177v4.748l5.506-3.098v-4.748l-5.506 3.098zm5.646-3.177v4.748l5.506-3.098v-4.748l-5.506 3.098zm5.646-3.177v4.748l5.506-3.098v-4.748l-5.506 3.098zm5.646-3.177v4.748l5.506-3.098v-4.748l-5.506 3.098zm5.646-3.177v4.748l5.506-3.098v-4.748l-5.506 3.098zm5.646-3.177v4.748l5.506-3.098v-4.748l-5.506 3.098zM5.265 43.549v4.748l5.506-3.098v-4.748l-5.506 3.098zm5.646-3.177v4.748l5.506-3.098v-4.748l-5.506 3.098zm5.646-3.177v4.748l5.506-3.098v-4.748l-5.506 3.098zm5.646-3.177v4.748l5.506-3.098v-4.748l-5.506 3.098zm5.646-3.177v4.748l5.506-3.098v-4.748l-5.506 3.098zm5.646-3.177v4.748l5.506-3.098v-4.748l-5.506 3.098zm5.646-3.177v4.748l5.506-3.098v-4.748l-5.506 3.098zM5.265 48.482v4.748l5.506-3.098v-4.748l-5.506 3.098zm5.646-3.177v4.748l5.506-3.098v-4.748l-5.506 3.098zm5.646-3.177v4.748l5.506-3.098v-4.748l-5.506 3.098zm5.646-3.177V43.7l5.506-3.098v-4.748l-5.506 3.098zm5.646-3.177v4.748l5.506-3.098v-4.748l-5.506 3.098zm5.646-3.177v4.748l5.506-3.098v-4.748l-5.506 3.098zm5.646-3.177v4.748l5.506-3.098v-4.748l-5.506 3.098z" fill="#FFD4E7" fill-rule="nonzero"/><path d="M11.243 25.67l21.709-12.214v4.193L11.243 29.863zm0 9.866l16.047-9.028v4.193l-16.047 9.028zm11.324 3.49l10.385-5.843v4.193l-10.385 5.843zm11.21-11.254l4.992-2.809v4.193l-4.992 2.809z" fill="#9E9E9E" opacity=".548"/><path d="M12.11 26.104L33.819 13.89v4.193L12.11 30.297z" fill="#fff"/><path d="M12.11 35.97l16.047-9.028v4.193L12.11 40.163z" fill="#FFDBF8"/><path d="M23.434 39.459l10.385-5.843v4.193l-10.385 5.843z" fill="#fff"/><path d="M34.644 28.205l4.992-2.809v4.193l-4.992 2.809z" fill="#FFDBF8"/></g><g transform="translate(213 286)"><g transform="translate(.215 .281)"><path d="M44.217 25.851v36.651c0 .374-.303.677-.677.677-.119 0-.235-.031-.338-.091L.677 38.536C.258 38.294 0 37.847 0 37.363V.712C0 .339.303.036.677.036c.119 0 .235.031.338.091L43.54 24.678c.419.242.677.689.677 1.172z" transform="matrix(-1 0 0 1 44.217125 0)" fill="url(#e)" opacity=".4"/><g transform="matrix(-1 0 0 1 49.249733 0)" opacity=".8"><use filter="url(#h)" xlink:href="#g" fill="#000"/><use xlink:href="#g" fill="url(#f)"/></g></g><path d="M44.789 6.328v24.861L5.125 53.505V28.644L44.789 6.328zM5.265 28.75v4.748l5.506-3.098v-4.748L5.265 28.75zm0 4.933v4.748l5.506-3.098v-4.748l-5.506 3.098zm5.646-8.11v4.748l5.506-3.098v-4.748l-5.506 3.098zm0 4.933v4.748l5.506-3.098v-4.748l-5.506 3.098zm5.646-8.11v4.748l5.506-3.098v-4.748l-5.506 3.098zm0 4.933v4.748l5.506-3.098v-4.748l-5.506 3.098zm5.646-8.11v4.748l5.506-3.098v-4.748l-5.506 3.098zm0 4.933v4.748l5.506-3.098v-4.748l-5.506 3.098zm5.646-8.11v4.748l5.506-3.098v-4.748l-5.506 3.098zm0 4.933v4.748l5.506-3.098v-4.748l-5.506 3.098zm5.646-8.11v4.748l5.506-3.098V9.769l-5.506 3.098zm0 4.933v4.748l5.506-3.098v-4.748L33.497 17.8zm5.646-8.11v4.748l5.506-3.098V6.592L39.143 9.69zm0 4.933v4.748l5.506-3.098v-4.748l-5.506 3.098zM5.265 38.616v4.748l5.506-3.098v-4.748l-5.506 3.098zm5.646-3.177v4.748l5.506-3.098v-4.748l-5.506 3.098zm5.646-3.177v4.748l5.506-3.098v-4.748l-5.506 3.098zm5.646-3.177v4.748l5.506-3.098v-4.748l-5.506 3.098zm5.646-3.177v4.748l5.506-3.098v-4.748l-5.506 3.098zm5.646-3.177v4.748l5.506-3.098v-4.748l-5.506 3.098zm5.646-3.177v4.748l5.506-3.098v-4.748l-5.506 3.098zM5.265 43.549v4.748l5.506-3.098v-4.748l-5.506 3.098zm5.646-3.177v4.748l5.506-3.098v-4.748l-5.506 3.098zm5.646-3.177v4.748l5.506-3.098v-4.748l-5.506 3.098zm5.646-3.177v4.748l5.506-3.098v-4.748l-5.506 3.098zm5.646-3.177v4.748l5.506-3.098v-4.748l-5.506 3.098zm5.646-3.177v4.748l5.506-3.098v-4.748l-5.506 3.098zm5.646-3.177v4.748l5.506-3.098v-4.748l-5.506 3.098zM5.265 48.482v4.748l5.506-3.098v-4.748l-5.506 3.098zm5.646-3.177v4.748l5.506-3.098v-4.748l-5.506 3.098zm5.646-3.177v4.748l5.506-3.098v-4.748l-5.506 3.098zm5.646-3.177V43.7l5.506-3.098v-4.748l-5.506 3.098zm5.646-3.177v4.748l5.506-3.098v-4.748l-5.506 3.098zm5.646-3.177v4.748l5.506-3.098v-4.748l-5.506 3.098zm5.646-3.177v4.748l5.506-3.098v-4.748l-5.506 3.098z" fill="#FBFEFF" fill-rule="nonzero"/><path d="M11.243 25.67l21.709-12.214v4.193L11.243 29.863zm0 9.866l16.047-9.028v4.193l-16.047 9.028zm11.324 3.49l10.385-5.843v4.193l-10.385 5.843zm11.21-11.254l4.992-2.809v4.193l-4.992 2.809z" fill="#9E9E9E" opacity=".548"/><path d="M12.11 26.104L33.819 13.89v4.193L12.11 30.297z" fill="#fff"/><path d="M12.11 35.97l16.047-9.028v4.193L12.11 40.163z" fill="#FEFFB5"/><path d="M23.434 39.459l10.385-5.843v4.193l-10.385 5.843z" fill="#fff"/><path d="M34.644 28.205l4.992-2.809v4.193l-4.992 2.809z" fill="#FEFFB5"/></g><g transform="matrix(-1 0 0 1 276 0)"><g transform="translate(.215 .281)"><path d="M44.217 25.851v36.651c0 .374-.303.677-.677.677-.119 0-.235-.031-.338-.091L.677 38.536C.258 38.294 0 37.847 0 37.363V.712C0 .339.303.036.677.036c.119 0 .235.031.338.091L43.54 24.678c.419.242.677.689.677 1.172z" transform="matrix(-1 0 0 1 44.217125 0)" fill="url(#K)" opacity=".7"/><g transform="matrix(-1 0 0 1 49.249733 0)" opacity=".8"><use filter="url(#j)" xlink:href="#i" fill="#000"/><use xlink:href="#i" fill="url(#L)"/></g></g><path d="M44.789 6.328v24.861L5.125 53.505V28.644L44.789 6.328zM5.265 28.75v4.748l5.506-3.098v-4.748L5.265 28.75zm0 4.933v4.748l5.506-3.098v-4.748l-5.506 3.098zm5.646-8.11v4.748l5.506-3.098v-4.748l-5.506 3.098zm0 4.933v4.748l5.506-3.098v-4.748l-5.506 3.098zm5.646-8.11v4.748l5.506-3.098v-4.748l-5.506 3.098zm0 4.933v4.748l5.506-3.098v-4.748l-5.506 3.098zm5.646-8.11v4.748l5.506-3.098v-4.748l-5.506 3.098zm0 4.933v4.748l5.506-3.098v-4.748l-5.506 3.098zm5.646-8.11v4.748l5.506-3.098v-4.748l-5.506 3.098zm0 4.933v4.748l5.506-3.098v-4.748l-5.506 3.098zm5.646-8.11v4.748l5.506-3.098V9.769l-5.506 3.098zm0 4.933v4.748l5.506-3.098v-4.748L33.497 17.8zm5.646-8.11v4.748l5.506-3.098V6.592L39.143 9.69zm0 4.933v4.748l5.506-3.098v-4.748l-5.506 3.098zM5.265 38.616v4.748l5.506-3.098v-4.748l-5.506 3.098zm5.646-3.177v4.748l5.506-3.098v-4.748l-5.506 3.098zm5.646-3.177v4.748l5.506-3.098v-4.748l-5.506 3.098zm5.646-3.177v4.748l5.506-3.098v-4.748l-5.506 3.098zm5.646-3.177v4.748l5.506-3.098v-4.748l-5.506 3.098zm5.646-3.177v4.748l5.506-3.098v-4.748l-5.506 3.098zm5.646-3.177v4.748l5.506-3.098v-4.748l-5.506 3.098zM5.265 43.549v4.748l5.506-3.098v-4.748l-5.506 3.098zm5.646-3.177v4.748l5.506-3.098v-4.748l-5.506 3.098zm5.646-3.177v4.748l5.506-3.098v-4.748l-5.506 3.098zm5.646-3.177v4.748l5.506-3.098v-4.748l-5.506 3.098zm5.646-3.177v4.748l5.506-3.098v-4.748l-5.506 3.098zm5.646-3.177v4.748l5.506-3.098v-4.748l-5.506 3.098zm5.646-3.177v4.748l5.506-3.098v-4.748l-5.506 3.098zM5.265 48.482v4.748l5.506-3.098v-4.748l-5.506 3.098zm5.646-3.177v4.748l5.506-3.098v-4.748l-5.506 3.098zm5.646-3.177v4.748l5.506-3.098v-4.748l-5.506 3.098zm5.646-3.177V43.7l5.506-3.098v-4.748l-5.506 3.098zm5.646-3.177v4.748l5.506-3.098v-4.748l-5.506 3.098zm5.646-3.177v4.748l5.506-3.098v-4.748l-5.506 3.098zm5.646-3.177v4.748l5.506-3.098v-4.748l-5.506 3.098z" fill="#F8FDFF" fill-rule="nonzero"/><path d="M11.243 25.67l21.709-12.214v4.193L11.243 29.863zm0 9.866l16.047-9.028v4.193l-16.047 9.028zm11.324 3.49l10.385-5.843v4.193l-10.385 5.843zm11.21-11.254l4.992-2.809v4.193l-4.992 2.809z" fill="#CC6196" opacity=".548"/><path d="M12.11 26.104L33.819 13.89v4.193L12.11 30.297z" fill="#FBFEFF"/><path d="M12.11 35.97l16.047-9.028v4.193L12.11 40.163z" fill="#9DD9FF"/><path d="M23.434 39.459l10.385-5.843v4.193l-10.385 5.843z" fill="#FBFEFF"/><path d="M34.644 28.205l4.992-2.809v4.193l-4.992 2.809z" fill="#9DD9FF"/></g><g transform="matrix(-1 0 0 1 247 33)"><path d="M5.728 18.328L4.76 33.346l-1.443.16 2.412 1.105v-.927l2.707-11.681 1.624 10.227-1.421.085 2.163 1.369.514-.339-.289-16.084z" fill="url(#O)"/><path d="M5.002 29.148l1.764.231 1.668-6.839 1.162 6.839 1.684-.436-.179-12.112-5.659 1.549z" fill="url(#C)"/><path d="M12.135 10.466l.346 2.754-1.488 2.548v-1.302l.455-1.575-.455-2.424z" fill="url(#O)"/><path d="M5.346 18.411c2.457 1.109 4.449.675 5.976-1.302l-.464-6.451 1.633-.131c-.348-3.219-1.365-4.762-3.049-4.631s-3.05 1.675-4.097 4.631l.55 1.332-.55 6.552z" fill="url(#P)"/><path d="M5.696 11.033l1.584.556-.877 1.447a1 1 0 0 1-1.374.337l-.017-.01L.96 10.795l-.719-.734v-1.01l.527.52.326.054c.437.073.758.451.758.895l3.34 1.452.503-.939z" fill="url(#Q)"/><g fill="#0D50BD"><path d="M4.774 33.294l-1.762.104 2.282 1.483.589-.171v-1.416H4.774zm5.465-1.142l-1.762.104 2.282 1.483.589-.171v-1.416h-1.109z"/><path d="M10.239 32.152l-1.762.104 2.282 1.483.589-.171v-1.416z"/></g><path d="M6.598 1.692c-.286 1.616-.216 2.666.211 3.151s.901.727 1.423.727v1.241l1.106-.583v-1.7c.765-.638 1.067-1.355.905-2.151C10.024 1.299 8.971.602 7.892.821c-.446.091-.848.331-1.138.682l-.156.188z" fill="url(#O)"/><path d="M6.391 2.706c.343.786.947 1.351 1.813 1.696 1.299.516-1.417 2.275-.907 3.914s2.684.916 2.387 2.925c1.294-1.091 1.862-2.415 1.706-3.971-.235-2.334-1.219-2.089-.827-4.317S7.958-.466 6.576 1.449l-.159.38a1.23 1.23 0 0 0-.027.878z" fill="#313131"/></g><path d="M244.728 337.329l-.968 15.017-1.443.161 2.412 1.105v-.926l2.707-11.681 1.624 10.227-1.421.085 2.163 1.369.514-.339-.289-16.084z" fill="url(#O)"/><path d="M244.002 348.148l1.764.231 1.668-6.839 1.162 6.839 1.684-.437-.179-12.112-5.659 1.549z" fill="url(#C)"/><path d="M251.135 329.466l.346 2.753-1.488 2.548v-1.302l.455-1.576-.455-2.424z" fill="url(#O)"/><path d="M244.346 337.411c2.457 1.109 4.449.675 5.976-1.302l-.464-6.451 1.633-.131c-.348-3.219-1.365-4.762-3.049-4.63s-3.05 1.675-4.097 4.63l.55 1.333-.55 6.552z" fill="url(#P)"/><path d="M244.696 330.033l1.584.556-.877 1.447a1 1 0 0 1-1.374.336l-.017-.01-4.052-2.567-.719-.733v-1.011l.527.52.326.054c.437.073.758.451.758.895l3.34 1.452.503-.939z" fill="url(#Q)"/><g fill="#0D50BD"><path d="M243.774 352.294l-1.762.104 2.282 1.483.589-.171v-1.416h-1.109zm5.465-1.143l-1.762.104 2.282 1.483.589-.171v-1.417h-1.109z"/><path d="M249.239 351.151l-1.762.104 2.282 1.483.589-.171v-1.417z"/></g><path d="M245.598 320.692c-.286 1.616-.216 2.667.211 3.151s.901.728 1.423.728v1.241l1.106-.583v-1.7c.765-.638 1.067-1.355.905-2.151-.219-1.079-1.272-1.776-2.352-1.557-.446.091-.848.332-1.138.682l-.156.188z" fill="url(#O)"/><path d="M245.391 321.706c.343.786.947 1.352 1.813 1.696 1.299.517-1.417 2.275-.907 3.914s2.684.916 2.387 2.925c1.294-1.091 1.862-2.415 1.706-3.97-.235-2.333-1.219-2.089-.827-4.317s-2.604-3.419-3.986-1.504l-.159.38a1.23 1.23 0 0 0-.027.877z" fill="#313131"/><g transform="matrix(-1 0 0 1 99 98)"><path d="M7.316 19.773l1.007 15.611 1.5.167L7.316 36.7v-.963L4.502 23.595 2.826 34.123h1.351l-2.135 1.614-.535-.353.3-16.72z" fill="url(#R)"/><path d="M.657 11.6h1.188l-.473 2.52.473 1.638v1.353L.297 14.462z" fill="url(#O)"/><path d="M7.714 19.859c-2.554 1.153-4.625.701-6.213-1.354l.482-6.706-1.698-.136c.362-3.346 1.419-4.951 3.17-4.814s3.171 1.742 4.259 4.814l-.572 1.385.572 6.811z" fill="url(#H)"/><path d="M7.35 12.189l.523.976 3.472-1.51c0-.461.333-.854.788-.93l.339-.056.547-.541v1.05l-.747.763-4.659 2.952a.53.53 0 0 1-.73-.179l-1.181-1.948 1.647-.578z" fill="url(#Q)"/><path d="M6.413 2.479c.297 1.68.224 2.772-.22 3.276s-.937.756-1.479.756v1.29l-1.15-.606V5.428c-.796-.663-1.109-1.409-.941-2.236.228-1.122 1.323-1.846 2.445-1.618.464.094.881.345 1.183.709l.162.196z" fill="url(#O)"/><path d="M6.062 2.13c-.207.637-.702 1.029-1.485 1.176l-.016.866c-.206-.474-.526-.681-.959-.62-.65.09.197 1.412.481 1.606.189.129.029.469-.481 1.02-1.045-.569-1.65-1.244-1.813-2.024-.245-1.17-.696-2.479.259-2.738S3.878-.425 5.931.366C7.3.894 7.343 1.482 6.062 2.13z" fill="url(#S)"/></g><g transform="translate(61 293)"><path d="M102.99 71.959v2.547c.014.328-.049.671-.227.979-.139.241-.339.441-.58.58l-42.044 24.274a3.96 3.96 0 0 1-3.961 0L1.355 68.688c-.557-.322-.845-.931-.785-1.531l-.008-2.547h4.866l92.632 7.35h4.93z" fill="url(#D)"/><path d="M47.36 39.226l54.823 31.652c.758.438 1.018 1.407.58 2.165-.139.241-.339.441-.58.58L60.139 97.896a3.96 3.96 0 0 1-3.961 0L1.355 66.245c-.758-.438-1.018-1.407-.58-2.165.139-.241.339-.441.58-.58l42.044-24.274a3.96 3.96 0 0 1 3.961 0z" fill="url(#E)"/><g transform="matrix(-1 0 0 1 104 .573546)"><g transform="translate(.215 .281)"><path d="M44.217 25.851v36.651c0 .374-.303.677-.677.677-.119 0-.235-.031-.338-.091L.677 38.536C.258 38.294 0 37.847 0 37.363V.712C0 .339.303.036.677.036c.119 0 .235.031.338.091L43.54 24.678c.419.242.677.689.677 1.172z" transform="matrix(-1 0 0 1 44.217125 0)" fill="url(#k)" opacity=".4"/><g transform="matrix(-1 0 0 1 49.249733 0)" opacity=".8"><use filter="url(#n)" xlink:href="#m" fill="#000"/><use xlink:href="#m" fill="url(#l)"/></g></g><path d="M44.789 6.328v24.861L5.125 53.505V28.644L44.789 6.328zM5.265 28.75v4.748l5.506-3.098v-4.748L5.265 28.75zm0 4.933v4.748l5.506-3.098v-4.748l-5.506 3.098zm5.646-8.11v4.748l5.506-3.098v-4.748l-5.506 3.098zm0 4.933v4.748l5.506-3.098v-4.748l-5.506 3.098zm5.646-8.11v4.748l5.506-3.098v-4.748l-5.506 3.098zm0 4.933v4.748l5.506-3.098v-4.748l-5.506 3.098zm5.646-8.11v4.748l5.506-3.098v-4.748l-5.506 3.098zm0 4.933v4.748l5.506-3.098v-4.748l-5.506 3.098zm5.646-8.11v4.748l5.506-3.098v-4.748l-5.506 3.098zm0 4.933v4.748l5.506-3.098v-4.748l-5.506 3.098zm5.646-8.11v4.748l5.506-3.098V9.769l-5.506 3.098zm0 4.933v4.748l5.506-3.098v-4.748L33.497 17.8zm5.646-8.11v4.748l5.506-3.098V6.592L39.143 9.69zm0 4.933v4.748l5.506-3.098v-4.748l-5.506 3.098zM5.265 38.616v4.748l5.506-3.098v-4.748l-5.506 3.098zm5.646-3.177v4.748l5.506-3.098v-4.748l-5.506 3.098zm5.646-3.177v4.748l5.506-3.098v-4.748l-5.506 3.098zm5.646-3.177v4.748l5.506-3.098v-4.748l-5.506 3.098zm5.646-3.177v4.748l5.506-3.098v-4.748l-5.506 3.098zm5.646-3.177v4.748l5.506-3.098v-4.748l-5.506 3.098zm5.646-3.177v4.748l5.506-3.098v-4.748l-5.506 3.098zM5.265 43.549v4.748l5.506-3.098v-4.748l-5.506 3.098zm5.646-3.177v4.748l5.506-3.098v-4.748l-5.506 3.098zm5.646-3.177v4.748l5.506-3.098v-4.748l-5.506 3.098zm5.646-3.177v4.748l5.506-3.098v-4.748l-5.506 3.098zm5.646-3.177v4.748l5.506-3.098v-4.748l-5.506 3.098zm5.646-3.177v4.748l5.506-3.098v-4.748l-5.506 3.098zm5.646-3.177v4.748l5.506-3.098v-4.748l-5.506 3.098zM5.265 48.482v4.748l5.506-3.098v-4.748l-5.506 3.098zm5.646-3.177v4.748l5.506-3.098v-4.748l-5.506 3.098zm5.646-3.177v4.748l5.506-3.098v-4.748l-5.506 3.098zm5.646-3.177V43.7l5.506-3.098v-4.748l-5.506 3.098zm5.646-3.177v4.748l5.506-3.098v-4.748l-5.506 3.098zm5.646-3.177v4.748l5.506-3.098v-4.748l-5.506 3.098zm5.646-3.177v4.748l5.506-3.098v-4.748l-5.506 3.098z" fill="#C0FFEF" fill-rule="nonzero"/><path d="M11.243 25.67l21.709-12.214v4.193L11.243 29.863zm0 9.866l16.047-9.028v4.193l-16.047 9.028zm11.324 3.49l10.385-5.843v4.193l-10.385 5.843zm11.21-11.254l4.992-2.809v4.193l-4.992 2.809z" fill="#9E9E9E" opacity=".548"/><path d="M12.11 26.104L33.819 13.89v4.193L12.11 30.297z" fill="#DEF5FF"/><path d="M12.11 35.97l16.047-9.028v4.193L12.11 40.163z" fill="#8FFFDE"/><path d="M23.434 39.459l10.385-5.843v4.193l-10.385 5.843z" fill="#DEF5FF"/><path d="M34.644 28.205l4.992-2.809v4.193l-4.992 2.809z" fill="#8FFFDE"/></g><path d="M67.528 48.773l1.007 15.611 1.5.167-2.507 1.149v-.963l-2.814-12.142-1.676 10.528h1.351l-2.135 1.614-.535-.353.3-16.72z" fill="url(#R)"/><path d="M60.869 40.6h1.188l-.473 2.52.473 1.638v1.354l-1.547-2.648z" fill="url(#O)"/><path d="M67.926 48.859c-2.554 1.153-4.625.701-6.213-1.354l.482-6.707-1.698-.136c.362-3.346 1.419-4.951 3.17-4.814s3.171 1.742 4.259 4.814l-.572 1.385.572 6.811z" fill="url(#H)"/><path d="M67.562 41.189l.523.976 3.472-1.509c0-.461.333-.854.788-.93l.339-.056.547-.541v1.05l-.747.762-4.65 2.947c-.003.001-.006.003-.009.005a.53.53 0 0 1-.73-.179l-1.181-1.948 1.647-.578z" fill="url(#Q)"/><path d="M66.625 31.479c.297 1.68.224 2.771-.22 3.276s-.937.756-1.479.756v1.29l-1.15-.606v-1.767c-.796-.663-1.109-1.408-.941-2.236.228-1.122 1.323-1.846 2.445-1.618.464.094.881.345 1.183.709l.162.196z" fill="url(#O)"/><path d="M66.274 31.13c-.207.637-.702 1.029-1.485 1.176l-.016.866c-.206-.474-.526-.681-.959-.621-.65.09.197 1.412.481 1.606.189.129.029.469-.481 1.02-1.045-.569-1.65-1.244-1.813-2.023-.245-1.169-.696-2.479.259-2.737s1.83-1.841 3.883-1.05c1.369.527 1.412 1.116.131 1.764z" fill="url(#S)"/></g><g transform="translate(214 179)"><path d="M102.99 71.959v2.547c.014.328-.049.671-.227.979-.139.241-.339.441-.58.58l-42.044 24.274a3.96 3.96 0 0 1-3.961 0L1.355 68.688c-.557-.322-.845-.931-.785-1.531l-.008-2.547h4.866l92.632 7.35h4.93z" fill="url(#D)"/><path d="M47.36 39.226l54.823 31.652c.758.438 1.018 1.407.58 2.165-.139.241-.339.441-.58.58L60.139 97.896a3.96 3.96 0 0 1-3.961 0L1.355 66.245c-.758-.438-1.018-1.407-.58-2.165.139-.241.339-.441.58-.58l42.044-24.274a3.96 3.96 0 0 1 3.961 0z" fill="url(#E)"/><g transform="matrix(-1 0 0 1 104 .573546)"><g transform="translate(.215 .281)"><path d="M44.217 25.851v36.651c0 .374-.303.677-.677.677-.119 0-.235-.031-.338-.091L.677 38.536C.258 38.294 0 37.847 0 37.363V.712C0 .339.303.036.677.036c.119 0 .235.031.338.091L43.54 24.678c.419.242.677.689.677 1.172z" transform="matrix(-1 0 0 1 44.217125 0)" fill="url(#k)" opacity=".4"/><g transform="matrix(-1 0 0 1 49.249733 0)" opacity=".8"><use filter="url(#p)" xlink:href="#o" fill="#000"/><use xlink:href="#o" fill="url(#l)"/></g></g><path d="M44.789 6.328v24.861L5.125 53.505V28.644L44.789 6.328zM5.265 28.75v4.748l5.506-3.098v-4.748L5.265 28.75zm0 4.933v4.748l5.506-3.098v-4.748l-5.506 3.098zm5.646-8.11v4.748l5.506-3.098v-4.748l-5.506 3.098zm0 4.933v4.748l5.506-3.098v-4.748l-5.506 3.098zm5.646-8.11v4.748l5.506-3.098v-4.748l-5.506 3.098zm0 4.933v4.748l5.506-3.098v-4.748l-5.506 3.098zm5.646-8.11v4.748l5.506-3.098v-4.748l-5.506 3.098zm0 4.933v4.748l5.506-3.098v-4.748l-5.506 3.098zm5.646-8.11v4.748l5.506-3.098v-4.748l-5.506 3.098zm0 4.933v4.748l5.506-3.098v-4.748l-5.506 3.098zm5.646-8.11v4.748l5.506-3.098V9.769l-5.506 3.098zm0 4.933v4.748l5.506-3.098v-4.748L33.497 17.8zm5.646-8.11v4.748l5.506-3.098V6.592L39.143 9.69zm0 4.933v4.748l5.506-3.098v-4.748l-5.506 3.098zM5.265 38.616v4.748l5.506-3.098v-4.748l-5.506 3.098zm5.646-3.177v4.748l5.506-3.098v-4.748l-5.506 3.098zm5.646-3.177v4.748l5.506-3.098v-4.748l-5.506 3.098zm5.646-3.177v4.748l5.506-3.098v-4.748l-5.506 3.098zm5.646-3.177v4.748l5.506-3.098v-4.748l-5.506 3.098zm5.646-3.177v4.748l5.506-3.098v-4.748l-5.506 3.098zm5.646-3.177v4.748l5.506-3.098v-4.748l-5.506 3.098zM5.265 43.549v4.748l5.506-3.098v-4.748l-5.506 3.098zm5.646-3.177v4.748l5.506-3.098v-4.748l-5.506 3.098zm5.646-3.177v4.748l5.506-3.098v-4.748l-5.506 3.098zm5.646-3.177v4.748l5.506-3.098v-4.748l-5.506 3.098zm5.646-3.177v4.748l5.506-3.098v-4.748l-5.506 3.098zm5.646-3.177v4.748l5.506-3.098v-4.748l-5.506 3.098zm5.646-3.177v4.748l5.506-3.098v-4.748l-5.506 3.098zM5.265 48.482v4.748l5.506-3.098v-4.748l-5.506 3.098zm5.646-3.177v4.748l5.506-3.098v-4.748l-5.506 3.098zm5.646-3.177v4.748l5.506-3.098v-4.748l-5.506 3.098zm5.646-3.177V43.7l5.506-3.098v-4.748l-5.506 3.098zm5.646-3.177v4.748l5.506-3.098v-4.748l-5.506 3.098zm5.646-3.177v4.748l5.506-3.098v-4.748l-5.506 3.098zm5.646-3.177v4.748l5.506-3.098v-4.748l-5.506 3.098z" fill="#C0FFEF" fill-rule="nonzero"/><path d="M11.243 25.67l21.709-12.214v4.193L11.243 29.863zm0 9.866l16.047-9.028v4.193l-16.047 9.028zm11.324 3.49l10.385-5.843v4.193l-10.385 5.843zm11.21-11.254l4.992-2.809v4.193l-4.992 2.809z" fill="#9E9E9E" opacity=".548"/><path d="M12.11 26.104L33.819 13.89v4.193L12.11 30.297z" fill="#DEF5FF"/><path d="M12.11 35.97l16.047-9.028v4.193L12.11 40.163z" fill="#8FFFDE"/><path d="M23.434 39.459l10.385-5.843v4.193l-10.385 5.843z" fill="#DEF5FF"/><path d="M34.644 28.205l4.992-2.809v4.193l-4.992 2.809z" fill="#8FFFDE"/></g><path d="M67.528 48.773l1.007 15.611 1.5.167-2.507 1.149v-.963l-2.814-12.142-1.676 10.528h1.351l-2.135 1.614-.535-.353.3-16.72z" fill="url(#R)"/><path d="M60.869 40.6h1.188l-.473 2.52.473 1.638v1.354l-1.547-2.648z" fill="url(#O)"/><path d="M67.926 48.859c-2.554 1.153-4.625.701-6.213-1.354l.482-6.707-1.698-.136c.362-3.346 1.419-4.951 3.17-4.814s3.171 1.742 4.259 4.814l-.572 1.385.572 6.811z" fill="url(#H)"/><path d="M67.562 41.189l.523.976 3.472-1.509c0-.461.333-.854.788-.93l.339-.056.547-.541v1.05l-.747.762-4.65 2.947c-.003.001-.006.003-.009.005a.53.53 0 0 1-.73-.179l-1.181-1.948 1.647-.578z" fill="url(#Q)"/><path d="M66.625 31.479c.297 1.68.224 2.771-.22 3.276s-.937.756-1.479.756v1.29l-1.15-.606v-1.767c-.796-.663-1.109-1.408-.941-2.236.228-1.122 1.323-1.846 2.444-1.618.464.094.881.345 1.183.709l.162.196z" fill="url(#O)"/><path d="M66.274 31.13c-.207.637-.702 1.029-1.485 1.176l-.016.866c-.206-.474-.526-.681-.959-.621-.65.09.197 1.412.481 1.606.189.129.029.469-.481 1.02-1.045-.569-1.65-1.244-1.813-2.023-.245-1.169-.696-2.479.259-2.737s1.83-1.841 3.883-1.05c1.369.527 1.412 1.116.131 1.764z" fill="url(#S)"/></g><path d="M201.632 66.756c-.851.148-1.182 2.196-.994 6.141l-2.9 2.867 1 .588 3.4-2.477a2 2 0 0 0 .82-1.513l.254-4.881c-.202-.632-.728-.874-1.579-.725z" fill="#367BEA"/><path d="M202.825 72.775l-6.745 5.816a1 1 0 0 0-.29 1.089l2.492 7.087-.897 1.394a.2.2 0 0 0 .06.276c.055.035.124.042.185.017l1.826-.753a.5.5 0 0 0 .306-.521l-.829-6.97 5.393-3.257-1.918 5.69a1 1 0 0 0 .019.691l2.304 5.755-.813 1.272a.2.2 0 0 0 .246.292l1.914-.8a.5.5 0 0 0 .3-.545l-.905-5.326c2.143-3.573 3.259-6.119 3.349-7.638s-.481-2.891-1.713-4.117l-4.284.548z" fill="#313131"/><path d="M201.981 73.899c1.294 1.604 3.556 2.308 6.788 2.113l-.515-6.111c-.136-2.028-1.389-3.222-3.759-3.582s-3.633.159-3.788 1.56l1.275 6.021z" fill="#1A64DC"/><path d="M200.793 74.731l6.608 3.184-3.251 3.034-6.778-3.762z" fill="url(#L)"/><path d="M204.418 77.912l-.507.23c-.195.088-.281.318-.192.513.016.035.037.068.063.097l-.502.696c.055.358.245.538.569.538s.764-.542 1.317-1.626l-.747-.447z" fill="#FCA6A3"/><path d="M193.793 73.731l6.608 3.184 3.749 4.034-6.778-3.762z" fill="url(#L)"/><path d="M207.186 68.479c-.632 0-1.536.128-1.547 1.733-.002.349.223 1.674.677 3.975l-2.098 3.736 1 .588 2.842-3.297a2 2 0 0 0 .482-1.415l-.226-4.142c-.195-.786-.572-1.179-1.131-1.179z" fill="#367BEA"/><path d="M201.306 64.887c.078 1.86.611 2.749 1.601 2.668l.217.628c.989.225 1.608-.209 1.859-1.305l-.372-.615c.702-2.113.271-3.295-1.292-3.547s-2.234.472-2.012 2.17z" fill="#FCA6A3"/><path d="M201.116 64.783c1.072.59 1.891.59 2.456 0l.29.592c.427-.048.677.249.75.889.767-1.211 1.124-2.149 1.071-2.812s-.437-1-1.152-1.009c-1.017-.728-1.992-.728-2.926 0s-1.097 1.508-.488 2.34z" fill="#313131"/><g transform="matrix(-1 0 0 1 82 255)"><path d="M8.632 5.756c-.851.149-1.182 2.196-.994 6.141l-2.9 2.867 1 .588 3.4-2.477a2 2 0 0 0 .82-1.513l.254-4.881c-.202-.632-.728-.874-1.579-.725z" fill="#367BEA"/><path d="M9.825 11.775L3.08 17.591a1 1 0 0 0-.29 1.089l2.492 7.088-.897 1.393a.2.2 0 0 0 .244.293l1.826-.753a.5.5 0 0 0 .306-.521l-.829-6.97 5.393-3.257-1.918 5.69a1 1 0 0 0 .019.691l2.304 5.755-.813 1.272a.2.2 0 0 0 .246.292l1.914-.801a.5.5 0 0 0 .3-.545l-.905-5.326c2.065-3.423 3.142-5.894 3.232-7.413s-.442-2.966-1.596-4.342l-4.284.548z" fill="#313131"/><path d="M8.981 12.9c1.294 1.603 3.556 2.308 6.788 2.113l-.515-6.112c-.136-2.028-1.389-3.222-3.759-3.582s-3.633.159-3.788 1.56l1.275 6.02z" fill="#1A64DC"/><path d="M7.793 13.732l6.608 3.184-3.251 3.034-6.778-3.763z" fill="url(#L)"/><path d="M11.418 16.911l-.507.231c-.195.088-.281.318-.192.513.016.035.037.068.063.097l-.502.696c.055.358.245.537.569.537s.764-.542 1.317-1.626l-.747-.448z" fill="#FCA6A3"/><path d="M.793 12.732l6.608 3.184 3.749 4.034-6.778-3.763z" fill="url(#L)"/><path d="M14.186 7.479c-.632 0-1.536.128-1.547 1.733-.002.349.223 1.674.677 3.975l-2.098 3.737 1 .588 2.842-3.297a2 2 0 0 0 .482-1.415l-.226-4.141c-.195-.786-.572-1.179-1.131-1.179z" fill="#367BEA"/><path d="M8.306 3.887c.078 1.86.611 2.749 1.601 2.668l.217.629c.989.225 1.608-.21 1.859-1.305l-.372-.615c.702-2.113.271-3.295-1.292-3.547s-2.234.472-2.012 2.17z" fill="#FCA6A3"/><path d="M8.116 3.783c1.072.59 1.891.59 2.456 0l.29.591c.427-.048.677.249.75.889.767-1.212 1.124-2.149 1.071-2.812s-.437-.999-1.152-1.009c-1.017-.728-1.992-.728-2.926 0s-1.097 1.508-.488 2.34z" fill="#313131"/></g></g></svg>